<svg width="512" height="512" viewBox="0 0 512 512" fill="none" xmlns="http://www.w3.org/2000/svg">
<path d="M458.667 192H352C346.112 192 341.333 196.779 341.333 202.667C341.333 208.555 346.112 213.334 352 213.334H458.667C476.31 213.334 490.667 227.691 490.667 245.334V458.667C490.667 476.31 476.31 490.667 458.667 490.667H245.333C227.69 490.667 213.333 476.31 213.333 458.667V373.334C213.333 367.446 208.554 362.667 202.666 362.667C196.778 362.667 192 367.445 192 373.333V458.666C192 488.064 215.936 512 245.333 512H458.666C488.064 512 512 488.064 512 458.667V245.333C512 215.936 488.064 192 458.667 192Z" fill="black" fill-opacity="0.87"/>
<path d="M160 298.667H149.333C143.445 298.667 138.666 303.446 138.666 309.334C138.666 315.222 143.445 320 149.333 320H160C165.888 320 170.667 315.221 170.667 309.333C170.667 303.445 165.888 298.667 160 298.667Z" fill="black" fill-opacity="0.87"/>
<path d="M62.7412 0H53.3332C48.2352 0 43.2002 0.725 38.3572 2.133C32.7042 3.797 29.4612 9.728 31.1042 15.381C32.4692 20.032 36.7362 23.04 41.3442 23.04C42.3472 23.04 43.3492 22.912 44.3522 22.613C47.2532 21.76 50.2612 21.333 53.3332 21.333H62.7412C68.6502 21.333 73.4082 16.554 73.4082 10.666C73.4082 4.778 68.6292 0 62.7412 0Z" fill="black" fill-opacity="0.87"/>
<path d="M21.333 257.216V235.648C21.333 229.76 16.554 224.981 10.666 224.981C4.778 224.981 0 229.76 0 235.648V257.216C0 263.104 4.779 267.883 10.667 267.883C16.555 267.883 21.333 263.104 21.333 257.216Z" fill="black" fill-opacity="0.87"/>
<path d="M10.667 203.179C16.555 203.179 21.334 198.4 21.334 192.512V170.944C21.334 165.056 16.555 160.277 10.667 160.277C4.779 160.277 0 165.056 0 170.944V192.512C0 198.4 4.779 203.179 10.667 203.179Z" fill="black" fill-opacity="0.87"/>
<path d="M10.667 73.7918C16.555 73.7918 21.334 69.0128 21.334 63.1248V53.3328C21.334 50.3678 21.739 47.4448 22.529 44.6288C24.129 38.9538 20.844 33.0658 15.169 31.4658C9.537 29.7808 3.606 33.1298 2.006 38.8258C0.683 43.5408 0 48.4268 0 53.3328V63.1248C0 69.0128 4.779 73.7918 10.667 73.7918Z" fill="black" fill-opacity="0.87"/>
<path d="M10.667 138.496C16.555 138.496 21.334 133.717 21.334 127.829V106.261C21.334 100.373 16.555 95.5938 10.667 95.5938C4.779 95.5938 0 100.373 0 106.261V127.829C0 133.717 4.779 138.496 10.667 138.496Z" fill="black" fill-opacity="0.87"/>
<path d="M44.587 297.451C39.424 295.979 34.646 293.184 30.806 289.366C26.646 285.206 19.883 285.249 15.723 289.409C11.563 293.59 11.584 300.353 15.766 304.492C22.166 310.871 30.123 315.521 38.763 317.975C39.744 318.252 40.726 318.38 41.686 318.38C46.315 318.38 50.603 315.329 51.926 310.636C53.547 304.96 50.261 299.051 44.587 297.451Z" fill="black" fill-opacity="0.87"/>
<path d="M307.605 51.9679C308.586 51.9679 309.589 51.8399 310.592 51.5199C316.245 49.8559 319.509 43.9469 317.845 38.2929C315.328 29.6739 310.592 21.7599 304.17 15.4019C299.989 11.2629 293.226 11.2849 289.087 15.4869C284.948 19.6679 284.991 26.4309 289.172 30.5699C293.012 34.4099 295.871 39.1459 297.364 44.2869C298.731 48.9389 302.976 51.9679 307.605 51.9679Z" fill="black" fill-opacity="0.87"/>
<path d="M256.832 0H235.264C229.376 0 224.597 4.779 224.597 10.667C224.597 16.555 229.376 21.334 235.264 21.334H256.832C262.72 21.334 267.499 16.555 267.499 10.667C267.499 4.779 262.72 0 256.832 0Z" fill="black" fill-opacity="0.87"/>
<path d="M106.219 298.667H84.6509C78.7629 298.667 73.9839 303.446 73.9839 309.334C73.9839 315.222 78.7629 320 84.6509 320H106.219C112.107 320 116.886 315.221 116.886 309.333C116.886 303.445 112.107 298.667 106.219 298.667Z" fill="black" fill-opacity="0.87"/>
<path d="M309.333 73.5996C303.445 73.5996 298.666 78.3786 298.666 84.2666V105.835C298.666 111.723 303.445 116.502 309.333 116.502C315.221 116.502 320 111.723 320 105.835V84.2666C320 78.3566 315.221 73.5996 309.333 73.5996Z" fill="black" fill-opacity="0.87"/>
<path d="M192.149 0H170.581C164.672 0 159.914 4.779 159.914 10.667C159.914 16.555 164.693 21.334 170.581 21.334H192.128C198.037 21.334 202.816 16.555 202.816 10.667C202.816 4.779 198.037 0 192.149 0Z" fill="black" fill-opacity="0.87"/>
<path d="M127.445 0H105.877C99.989 0 95.21 4.779 95.21 10.667C95.21 16.555 99.989 21.334 105.877 21.334H127.445C133.333 21.334 138.112 16.555 138.112 10.667C138.112 4.779 133.333 0 127.445 0Z" fill="black" fill-opacity="0.87"/>
<path d="M309.333 138.667C303.445 138.667 298.666 143.446 298.666 149.334V160C298.666 165.888 303.445 170.667 309.333 170.667C315.221 170.667 320 165.888 320 160V149.333C320 143.445 315.221 138.667 309.333 138.667Z" fill="black" fill-opacity="0.87"/>
<path d="M349.952 185.515L316.885 152.448C303.914 139.477 282.773 139.477 269.802 152.448C265.919 156.331 263.189 160.96 261.631 165.867C250.004 161.814 236.095 164.822 227.135 173.782C222.25 178.667 219.22 184.705 218.004 191.019C207.828 189.59 197.204 193.046 189.801 200.448C182.718 207.531 179.497 217.024 180.137 226.304C172.948 227.285 166.313 230.549 161.108 235.755C154.815 242.048 151.359 250.411 151.359 259.307C151.359 268.203 154.815 276.587 161.108 282.859L170.665 292.416V330.667C170.667 360.064 194.603 384 224 384H267.733C331.84 384 384 331.84 384 267.733C384 236.693 371.904 207.488 349.952 185.515ZM267.733 362.667H224C206.357 362.667 192 348.31 192 330.667V313.75L216.469 338.219C220.629 342.379 227.392 342.379 231.552 338.219C233.621 336.128 234.667 333.398 234.667 330.667C234.667 327.936 233.622 325.206 231.552 323.115L176.192 267.755C173.931 265.515 172.693 262.486 172.693 259.307C172.693 256.128 173.93 253.12 176.192 250.859C180.715 246.336 188.587 246.336 193.109 250.859L216.469 274.219C220.629 278.379 227.392 278.379 231.552 274.219C233.621 272.128 234.667 269.398 234.667 266.667C234.667 263.936 233.622 261.206 231.552 259.136L204.885 232.469C200.213 227.797 200.213 220.224 204.885 215.552C209.408 211.029 217.28 211.029 221.802 215.552L237.802 231.552C241.962 235.712 248.725 235.712 252.885 231.552C254.954 229.461 256 226.731 256 224C256 221.269 254.955 218.539 252.885 216.469L242.218 205.802C237.546 201.13 237.546 193.557 242.218 188.885C246.741 184.362 254.613 184.362 259.135 188.885L269.802 199.552C273.962 203.712 280.725 203.712 284.885 199.552C286.954 197.461 288 194.731 288 192C288 189.269 286.955 186.539 284.864 184.448C282.603 182.208 281.365 179.2 281.365 176C281.365 172.8 282.624 169.792 284.885 167.552C289.557 162.88 297.13 162.88 301.802 167.552L334.869 200.619C352.789 218.539 362.666 242.39 362.666 267.734C362.667 320.085 320.085 362.667 267.733 362.667Z" fill="black" fill-opacity="0.87"/>
</svg>
