<svg width="64" height="64" viewBox="0 0 64 64" fill="none" xmlns="http://www.w3.org/2000/svg">
    <path d="M22.7944 31.248L1.37758 15.4672L28.4304 16.2813L22.7944 31.248Z" fill="white" fill-opacity="0.5" />
    <path d="M55.7339 15.28L62.8728 19.4131H54.4814L55.7339 15.28Z" fill="white" fill-opacity="0.5" />
    <path
        d="M63.8506 19.9819C63.8526 19.9786 63.8551 19.976 63.8571 19.9727C63.8612 19.9661 63.8644 19.9592 63.8684 19.9524C63.8781 19.936 63.8875 19.9195 63.8962 19.9025C63.902 19.8911 63.9074 19.8796 63.9127 19.868C63.9202 19.8519 63.9272 19.8356 63.9339 19.8191C63.9391 19.8059 63.9439 19.7926 63.9484 19.7794C63.9535 19.7642 63.9585 19.7491 63.9629 19.7335C63.9673 19.7182 63.9712 19.703 63.9747 19.6876C63.9779 19.6737 63.981 19.6596 63.9836 19.6455C63.9867 19.6282 63.9893 19.611 63.9915 19.5937C63.9931 19.5808 63.9947 19.5678 63.9957 19.5547C63.9974 19.536 63.9981 19.5173 63.9986 19.4987C63.9989 19.4907 63.9999 19.4829 63.9999 19.4749C63.9999 19.4701 63.9992 19.4654 63.9991 19.4606C63.9989 19.443 63.9977 19.4253 63.9965 19.4076C63.9955 19.3934 63.9946 19.3791 63.9929 19.3649C63.9911 19.3504 63.9886 19.336 63.9862 19.3216C63.9835 19.3051 63.9808 19.2884 63.9773 19.2722C63.9747 19.2605 63.9713 19.2488 63.9683 19.2372C63.9635 19.2191 63.9589 19.2011 63.9533 19.1836C63.9498 19.1728 63.9455 19.1623 63.9416 19.1516C63.9351 19.134 63.9289 19.1164 63.9213 19.0993C63.9162 19.0874 63.9102 19.076 63.9044 19.0643C63.897 19.0493 63.89 19.0342 63.8819 19.0195C63.8741 19.0055 63.8655 18.9921 63.857 18.9784C63.8497 18.9668 63.8428 18.955 63.835 18.9439C63.8248 18.929 63.8135 18.9145 63.8024 18.9001C63.7951 18.8908 63.7882 18.8812 63.7806 18.8721C63.7689 18.8582 63.7564 18.845 63.7439 18.8318C63.7353 18.8227 63.7271 18.8135 63.7182 18.8047C63.7065 18.7933 63.6941 18.7825 63.6819 18.7716C63.6706 18.7616 63.6593 18.7516 63.6476 18.7422C63.6368 18.7336 63.6255 18.7256 63.6144 18.7174C63.5997 18.7066 63.5851 18.6962 63.5698 18.6864C63.5659 18.6838 63.5624 18.6808 63.5584 18.6785L55.5427 13.6687C55.5372 13.6653 55.5316 13.6627 55.5261 13.6594C55.5149 13.6528 55.504 13.646 55.4926 13.6399C55.4856 13.6361 55.4786 13.6326 55.4716 13.6291C55.4603 13.6233 55.4489 13.6181 55.4374 13.6128C55.4283 13.6086 55.4192 13.6042 55.4098 13.6002C55.4033 13.5974 55.3968 13.595 55.3903 13.5925C55.375 13.5865 55.3597 13.581 55.3443 13.5759C55.3387 13.574 55.3334 13.5715 55.3277 13.5697C55.3259 13.5692 55.3242 13.5689 55.3225 13.5684C55.317 13.5667 55.3115 13.5653 55.306 13.5637C55.2881 13.5585 55.2702 13.5541 55.2522 13.5499C55.2453 13.5484 55.2385 13.5463 55.2316 13.5449C55.2271 13.5441 55.2226 13.5437 55.2181 13.5428C55.1998 13.5394 55.1815 13.5367 55.1631 13.5343C55.15 13.5327 55.1368 13.531 55.1235 13.5299C55.1074 13.5285 55.0913 13.5278 55.0752 13.5273C55.0598 13.5268 55.0444 13.5264 55.0291 13.5266C55.0151 13.5269 55.0012 13.5276 54.9871 13.5285C54.9816 13.5289 54.9761 13.5289 54.9706 13.5293C54.967 13.5295 54.9633 13.5294 54.9597 13.5298C54.9521 13.5305 54.9446 13.5319 54.937 13.5328C54.9241 13.5343 54.9112 13.5363 54.8983 13.5383C54.8941 13.5389 54.8898 13.5394 54.8857 13.5402C54.8799 13.5412 54.8742 13.5416 54.8685 13.5427C54.8615 13.5441 54.8548 13.5461 54.8479 13.5476C54.835 13.5503 54.8222 13.5537 54.8093 13.557C54.7933 13.5611 54.7774 13.5653 54.7617 13.5704C54.7479 13.5747 54.7344 13.5796 54.7209 13.5846C54.7108 13.5883 54.7007 13.5914 54.6909 13.5954C54.6868 13.597 54.6828 13.5993 54.6787 13.601C54.664 13.6072 54.6497 13.6141 54.6355 13.621C54.6257 13.6257 54.6157 13.6301 54.606 13.6351C54.605 13.6356 54.6039 13.636 54.6029 13.6366L40.2541 21.2893L31.725 10.8647C31.7246 10.8642 31.7241 10.8638 31.7237 10.8633C31.7211 10.8601 31.7183 10.8569 31.7156 10.8537C31.7089 10.8458 31.7017 10.8386 31.6948 10.831C31.6815 10.8162 31.6682 10.8013 31.6539 10.7874C31.6457 10.7793 31.6365 10.7719 31.6279 10.7641C31.6142 10.7517 31.6008 10.7392 31.5864 10.7276C31.5728 10.7167 31.5583 10.7068 31.5441 10.6965C31.543 10.6957 31.542 10.6949 31.5408 10.6941C31.5315 10.6875 31.5224 10.6802 31.5128 10.6738C31.4984 10.6643 31.483 10.656 31.468 10.6473C31.4566 10.6406 31.4454 10.6335 31.4338 10.6274C31.4197 10.62 31.405 10.6138 31.3904 10.6072C31.377 10.6011 31.3639 10.5943 31.3502 10.5888C31.3372 10.5835 31.3237 10.5794 31.3103 10.5748C31.2944 10.5691 31.2786 10.5632 31.2624 10.5585C31.2604 10.5578 31.2584 10.557 31.2564 10.5565C31.2421 10.5523 31.2279 10.5498 31.2136 10.5465C31.2007 10.5434 31.1879 10.5399 31.1748 10.5374C31.1692 10.5364 31.1639 10.5352 31.1584 10.5342L3.10832 5.52477C3.09905 5.52314 3.08991 5.52264 3.08064 5.52126C3.06373 5.51876 3.04695 5.51638 3.03004 5.51475C3.01451 5.51325 2.99923 5.5125 2.98383 5.51187C2.96917 5.51124 2.95452 5.51074 2.93987 5.51074C2.92308 5.51074 2.90643 5.51137 2.88977 5.51237C2.87624 5.51312 2.86259 5.51412 2.84906 5.51538C2.83228 5.517 2.81562 5.51926 2.79909 5.52189C2.78531 5.52402 2.77166 5.5264 2.75801 5.52903C2.74223 5.53216 2.7267 5.53579 2.71117 5.5398C2.69677 5.54343 2.68236 5.54744 2.66809 5.55182C2.65368 5.55621 2.63966 5.56097 2.6255 5.5661C2.6106 5.57149 2.59594 5.57712 2.58129 5.58326C2.56776 5.5889 2.55461 5.59503 2.54134 5.60129C2.52706 5.60806 2.51291 5.61507 2.49888 5.62259C2.48523 5.62998 2.47195 5.63774 2.4588 5.64576C2.44615 5.6534 2.4335 5.66116 2.4211 5.66943C2.40657 5.6792 2.39255 5.68947 2.37865 5.69999C2.37138 5.7055 2.36362 5.71026 2.35648 5.71602C2.3531 5.71865 2.35034 5.72165 2.34696 5.72441C2.33293 5.73593 2.31953 5.74821 2.30613 5.76061C2.29649 5.7695 2.28659 5.77827 2.27732 5.78753C2.2653 5.79956 2.25415 5.81233 2.24276 5.82498C2.23336 5.8355 2.22372 5.84577 2.21495 5.85654C2.20493 5.86882 2.19566 5.88184 2.18627 5.89474C2.1775 5.90664 2.16849 5.91841 2.16034 5.93056C2.15183 5.94346 2.14419 5.95686 2.1363 5.97027C2.12853 5.98329 2.12052 5.99607 2.1135 6.00934C2.10649 6.02262 2.10035 6.03652 2.09396 6.05017C2.08733 6.06432 2.08044 6.07835 2.07455 6.09275C2.06904 6.10603 2.06453 6.11981 2.05965 6.13346C2.05414 6.14899 2.04838 6.16452 2.04374 6.1803C2.03986 6.19333 2.03673 6.20685 2.03335 6.22025C2.02909 6.23729 2.02483 6.25419 2.02157 6.27135C2.0207 6.27574 2.01932 6.27999 2.01857 6.28438C2.01681 6.2939 2.01631 6.30329 2.01494 6.31281C2.01256 6.32934 2.01018 6.34587 2.00867 6.36253C2.00717 6.37806 2.00642 6.39347 2.00579 6.40887C2.00517 6.42365 2.00467 6.43843 2.00467 6.45321C2.00467 6.46974 2.00542 6.48615 2.00629 6.50255C2.00704 6.51646 2.00805 6.53023 2.00942 6.54414C2.01105 6.56067 2.01331 6.57695 2.01581 6.59323C2.01794 6.60726 2.02045 6.62129 2.0232 6.63519C2.02633 6.65072 2.02984 6.666 2.03385 6.68128C2.0376 6.69593 2.04161 6.71046 2.046 6.72499C2.05038 6.73914 2.05514 6.75317 2.06015 6.76707C2.06553 6.78198 2.07117 6.79688 2.07731 6.81153C2.08294 6.82493 2.08895 6.83821 2.09522 6.85136C2.10198 6.86564 2.10899 6.87979 2.11651 6.89382C2.12377 6.90747 2.13166 6.92062 2.13955 6.9339C2.14719 6.94667 2.15496 6.95932 2.16335 6.97172C2.17299 6.98612 2.18326 7.00003 2.19366 7.0138C2.19917 7.02119 2.20393 7.02896 2.20982 7.03622L8.20302 14.5277H0.939335C0.930818 14.5277 0.922677 14.5287 0.914286 14.529C0.897002 14.5295 0.879718 14.5302 0.862434 14.5316C0.84728 14.5329 0.83225 14.5346 0.817346 14.5365C0.802693 14.5384 0.788039 14.5406 0.773511 14.5431C0.756978 14.546 0.740697 14.5495 0.72454 14.5533C0.711515 14.5563 0.698614 14.5597 0.685714 14.5633C0.669057 14.5679 0.652775 14.5729 0.636493 14.5786C0.623843 14.5828 0.611319 14.5875 0.598794 14.5924C0.583389 14.5984 0.568235 14.6046 0.553331 14.6114C0.540055 14.6174 0.526904 14.6238 0.513879 14.6304C0.500477 14.6373 0.487202 14.6443 0.474176 14.6518C0.460274 14.6597 0.446622 14.6681 0.433096 14.6768C0.421448 14.6843 0.410051 14.6919 0.398779 14.6998C0.385002 14.7095 0.371601 14.7196 0.358325 14.7301C0.347554 14.7386 0.337158 14.7473 0.326888 14.7562C0.314489 14.7669 0.302215 14.778 0.290317 14.7894C0.279421 14.7998 0.269025 14.8104 0.25863 14.8213C0.24836 14.8321 0.23834 14.8431 0.228571 14.8545C0.217174 14.8678 0.206278 14.8814 0.195632 14.8953C0.190497 14.902 0.184986 14.9078 0.179976 14.9146C0.177096 14.9186 0.174841 14.9227 0.172086 14.9268C0.161315 14.942 0.151421 14.9577 0.141526 14.9735C0.134888 14.9842 0.128 14.995 0.121863 15.0059C0.113221 15.0213 0.105331 15.0371 0.0974403 15.053C0.0914286 15.0652 0.0852916 15.0773 0.0797808 15.0896C0.0732681 15.1044 0.0676321 15.1195 0.0618708 15.1347C0.0566106 15.1486 0.0510998 15.1625 0.0464657 15.1766C0.0419569 15.1905 0.0381996 15.2048 0.034317 15.2191C0.0299335 15.2349 0.0255499 15.2506 0.0221683 15.2665C0.0192877 15.2797 0.0172838 15.2931 0.0149041 15.3064C0.0118982 15.3238 0.00889237 15.3412 0.00688845 15.3587C0.00538552 15.3714 0.00463405 15.3842 0.00375734 15.3971C0.00237965 15.4155 0.00125245 15.434 0.00100196 15.4524C0.000626223 15.4573 0 15.4621 0 15.4671C0 15.4756 0.00100196 15.4837 0.00125245 15.4921C0.00175342 15.5094 0.00237965 15.5267 0.00388258 15.544C0.00513503 15.5591 0.00688845 15.574 0.00876712 15.5891C0.0106458 15.6038 0.0129002 15.6185 0.0155303 15.633C0.018411 15.6494 0.0219178 15.6657 0.0256751 15.6819C0.0288063 15.695 0.0320626 15.708 0.0356947 15.7209C0.0403288 15.7375 0.0453385 15.7536 0.0508493 15.7698C0.0552329 15.7827 0.0598669 15.7953 0.0648767 15.808C0.0707632 15.8231 0.0770254 15.8382 0.0836634 15.8529C0.0898004 15.8665 0.0963131 15.8799 0.102951 15.8931C0.109714 15.9063 0.116603 15.9193 0.123867 15.9321C0.131883 15.9462 0.140524 15.9602 0.149292 15.9739C0.156556 15.9853 0.16407 15.9966 0.171836 16.0076C0.181605 16.0215 0.191875 16.0352 0.202521 16.0486C0.210912 16.0591 0.219429 16.0695 0.228196 16.0796C0.238967 16.0922 0.250113 16.1044 0.261761 16.1165C0.272031 16.1272 0.282677 16.1376 0.293573 16.1479C0.30447 16.1582 0.315366 16.1683 0.326888 16.1782C0.340164 16.1896 0.353816 16.2004 0.367593 16.211C0.374231 16.2162 0.380117 16.2217 0.387006 16.2267L21.9672 31.9213L18.0482 57.3943C18.0477 57.3973 18.0474 57.4003 18.0469 57.4035L18.0464 57.4065C18.0457 57.4104 18.0457 57.4141 18.0452 57.418C18.0415 57.4447 18.0385 57.4714 18.037 57.4979C18.0364 57.5084 18.0367 57.5187 18.0365 57.5291C18.0361 57.549 18.0356 57.5689 18.0364 57.5887C18.037 57.6042 18.0387 57.6194 18.0401 57.6347C18.0415 57.6492 18.0424 57.6637 18.0444 57.6781C18.0469 57.696 18.0505 57.7137 18.054 57.7314C18.0564 57.7431 18.0583 57.755 18.0611 57.7667C18.0654 57.7847 18.0708 57.8022 18.0761 57.8199C18.0794 57.8313 18.0826 57.8427 18.0864 57.854C18.0921 57.8703 18.0986 57.8862 18.1051 57.9022C18.1101 57.9146 18.1149 57.9271 18.1205 57.9393C18.1268 57.9529 18.1338 57.9662 18.1407 57.9795C18.1479 57.9935 18.155 58.0075 18.1628 58.0212C18.1692 58.0322 18.1764 58.0427 18.1831 58.0535C18.1927 58.0685 18.2022 58.0835 18.2127 58.0981C18.2193 58.1072 18.2265 58.116 18.2334 58.1249C18.245 58.1399 18.2567 58.1548 18.2693 58.1692C18.2768 58.1777 18.285 58.1857 18.2927 58.1941C18.3055 58.2077 18.3181 58.2212 18.3318 58.234C18.3419 58.2435 18.3528 58.2524 18.3635 58.2615C18.3755 58.2719 18.3874 58.2824 18.4001 58.2922C18.4155 58.3042 18.4317 58.3151 18.448 58.3261C18.4569 58.3322 18.4653 58.3385 18.4743 58.3442C18.497 58.3585 18.5205 58.3715 18.5446 58.3839C18.548 58.3856 18.551 58.3876 18.5544 58.3894C18.5547 58.3895 18.5551 58.3896 18.5555 58.3899C18.5872 58.4057 18.6199 58.4197 18.6536 58.432C18.6619 58.435 18.6705 58.4371 18.6789 58.4399C18.7019 58.4475 18.7252 58.4548 18.7491 58.4607C18.7649 58.4645 18.7807 58.4673 18.7965 58.4704C18.8082 58.4727 18.8196 58.4758 18.8317 58.4777C18.8357 58.4783 18.8395 58.4781 18.8436 58.4786C18.887 58.4847 18.9305 58.4888 18.9738 58.4888C18.9743 58.4888 18.9748 58.4887 18.9752 58.4887H18.9757C19.0145 58.4887 19.0527 58.4855 19.0907 58.4807C19.0982 58.4797 19.1056 58.4788 19.1131 58.4777C19.1906 58.4662 19.2655 58.445 19.3364 58.4153C19.3433 58.4124 19.35 58.4097 19.3568 58.4067C19.3911 58.3914 19.4246 58.3744 19.4567 58.3551C19.4626 58.3516 19.4681 58.3476 19.4739 58.3439C19.501 58.3269 19.527 58.3085 19.5522 58.2889C19.5597 58.2832 19.5672 58.2776 19.5745 58.2715C19.6024 58.2484 19.629 58.2234 19.6541 58.197C19.6604 58.1904 19.6664 58.1835 19.6725 58.1767C19.6978 58.1487 19.7219 58.1194 19.7438 58.0883C19.7444 58.0873 19.7453 58.0864 19.7459 58.0855C19.7696 58.0515 19.7905 58.0154 19.8097 57.9781C19.8112 57.9751 19.8133 57.9725 19.8148 57.9694L26.6758 44.2473L49.4079 34.3638C49.414 34.3612 49.4195 34.3578 49.4255 34.3551C49.4437 34.3467 49.4616 34.3379 49.4793 34.3284C49.4809 34.3275 49.4826 34.3268 49.4844 34.3259C49.4873 34.3244 49.4902 34.3233 49.493 34.3216C49.4995 34.318 49.5056 34.3136 49.5121 34.3099C49.5262 34.3015 49.5403 34.2927 49.5539 34.2836C49.5629 34.2776 49.5721 34.2719 49.5808 34.2657C49.5842 34.2633 49.5873 34.2605 49.5907 34.258C49.601 34.2505 49.611 34.2426 49.6209 34.2346C49.6233 34.2327 49.626 34.2315 49.6284 34.2295C49.6308 34.2275 49.6329 34.2252 49.6353 34.2232C49.6441 34.2159 49.6525 34.2085 49.6609 34.2009C49.6691 34.1934 49.6771 34.1856 49.6852 34.178C49.6857 34.1775 49.6862 34.1771 49.6867 34.1766C49.6902 34.1732 49.6939 34.1703 49.6974 34.1668C49.7001 34.1642 49.7024 34.1615 49.7051 34.1588C49.7113 34.1523 49.7175 34.1458 49.7236 34.1392C49.7314 34.1306 49.7388 34.1219 49.7463 34.1131C49.7535 34.1047 49.7611 34.0964 49.7679 34.0878C49.772 34.0828 49.7757 34.0778 49.7796 34.0728C49.7827 34.0688 49.7859 34.0648 49.7889 34.0608C49.7921 34.0562 49.795 34.0515 49.7983 34.047C49.7993 34.0456 49.8001 34.0441 49.8011 34.0427C49.8084 34.0325 49.8159 34.0223 49.8227 34.0118C49.8248 34.0084 49.8269 34.0051 49.8291 34.0018C49.8363 33.9901 49.843 33.9781 49.8497 33.9662C49.8561 33.9549 49.8628 33.9439 49.8686 33.9325C49.8689 33.932 49.8693 33.9315 49.8695 33.9309C49.8704 33.9291 49.8713 33.9274 49.8722 33.9256C49.8789 33.9122 49.8849 33.8982 49.8911 33.8844C49.8961 33.8731 49.9015 33.862 49.906 33.8505C49.9067 33.8486 49.9076 33.8467 49.9083 33.8448C49.9141 33.8301 49.9189 33.8149 49.9239 33.7997C49.9246 33.7976 49.9254 33.7955 49.9261 33.7934C49.927 33.7906 49.9285 33.7881 49.9294 33.7853L49.9331 33.7733C49.9333 33.7731 49.9333 33.7728 49.9334 33.7726L54.1518 20.4145H63.0583C63.0589 20.4145 63.0595 20.4146 63.06 20.4146C63.0622 20.4146 63.0643 20.4142 63.0664 20.4142C63.1011 20.414 63.1352 20.4117 63.1689 20.4078C63.1784 20.4067 63.1878 20.405 63.1972 20.4036C63.2245 20.3996 63.2513 20.3947 63.2777 20.3884C63.2875 20.3862 63.2971 20.3835 63.3068 20.3809C63.3338 20.3736 63.3602 20.3651 63.3862 20.3555C63.3943 20.3525 63.4026 20.3497 63.4107 20.3465C63.4444 20.3329 63.4773 20.318 63.509 20.3009C63.5098 20.3005 63.5105 20.2999 63.5113 20.2995C63.5412 20.2831 63.5699 20.2648 63.5978 20.2453C63.6084 20.2379 63.6185 20.23 63.6286 20.2222C63.6473 20.2081 63.6653 20.1933 63.6827 20.1779C63.6928 20.169 63.7028 20.1602 63.7124 20.1508C63.7356 20.1285 63.7576 20.1052 63.7783 20.0807C63.7807 20.0779 63.7832 20.0756 63.7856 20.0728C63.8091 20.0438 63.8304 20.0132 63.8506 19.9819ZM54.7617 14.4655L49.1585 32.5633L40.8924 22.1054L54.7617 14.4655ZM5.23723 7.81324L29.6976 12.1811L22.709 29.6528L5.23723 7.81324ZM46.9155 32.3973L24.3295 30.6599L31.2791 13.2861L46.9155 32.3973ZM26.6758 43.4125L23.6086 31.9213L48.7828 33.6279L26.6758 43.4125ZM24.9927 43.4125L20.814 51.7698L23.2018 36.249L24.9927 43.4125ZM19.4755 28.7434L1.44031 15.544L9.70596 16.4064L19.4755 28.7434ZM55.5755 15.9044L59.7854 18.5356H54.7447L55.5755 15.9044Z"
        fill="white" />
    <path d="M23.0454 31.374L3.31935 6.51301L30.8105 11.3975L23.0454 31.374Z" fill="white" />
    <path d="M19.0373 57.8008L22.92 31.7499L26.1138 43.6481L19.0373 57.8008Z" fill="white" />
    <path d="M26.6144 43.46L23.5459 31.8748L49.0332 33.6283L26.6144 43.46Z" fill="url(#paint0_radial_1910_3036)" />
    <path d="M23.7338 31.3735L31.499 11.6475L49.0332 33.127L23.7338 31.3735Z" fill="white" />
    <path d="M40.8297 22.1053L54.9197 14.4654L49.221 32.6885L40.8297 22.1053Z" fill="url(#paint1_radial_1910_3036)" />
    <defs>
        <radialGradient id="paint0_radial_1910_3036" cx="0" cy="0" r="1" gradientUnits="userSpaceOnUse"
            gradientTransform="translate(27.6164 43.46) rotate(-22.6015) scale(29.9816 65.9596)">
            <stop stop-color="white" />
            <stop offset="1" stop-color="#FFB703" stop-opacity="0" />
        </radialGradient>
        <radialGradient id="paint1_radial_1910_3036" cx="0" cy="0" r="1" gradientUnits="userSpaceOnUse"
            gradientTransform="translate(49.0958 31.8744) rotate(-72.6285) scale(24.54 18.9743)">
            <stop stop-color="white" />
            <stop offset="1" stop-color="#FFB703" stop-opacity="0" />
        </radialGradient>
    </defs>
</svg>