<svg width="96" height="96" viewBox="0 0 96 96" fill="none" xmlns="http://www.w3.org/2000/svg">
    <rect width="96" height="96" rx="16" fill="#58E997" />
    <path
        d="M22.0886 80.0005H73.9111C76.1587 80.0005 77.9813 78.1783 77.9813 75.9304V56.1237C77.9813 53.8762 76.1592 52.0537 73.9111 52.0537H62.9274C62.2911 52.0537 61.4109 52.4193 60.9334 52.8402C57.4802 55.8822 52.956 57.7281 48 57.7281C43.0442 57.7281 38.5199 55.8822 35.0665 52.8402C34.5893 52.4196 33.7087 52.0537 33.0729 52.0537H22.0886C19.841 52.0537 18.0186 53.8758 18.0186 56.1237V75.9304C18.0184 78.1783 19.8405 80.0005 22.0886 80.0005Z"
        fill="white" />
    <path
        d="M30.8719 42.9929C33.5806 50.2742 40.2258 55.4238 47.9998 55.4238C55.7738 55.4238 62.4191 50.2743 65.1277 42.9929C67.6049 42.8393 69.5679 40.7877 69.5679 38.272C69.5679 36.1853 68.2166 34.4178 66.3432 33.7864C65.4379 23.8037 57.5718 16 47.9998 16C38.4278 16 30.5615 23.8037 29.6565 33.7864C27.7829 34.4178 26.4316 36.1853 26.4316 38.272C26.4316 40.7875 28.3947 42.8397 30.8719 42.9929Z"
        fill="white" />
</svg>