<svg width="942" height="1030" viewBox="0 0 942 1030" fill="none" xmlns="http://www.w3.org/2000/svg">
    <g filter="url(#filter0_f_1969_3064)">
        <circle cx="514.606" cy="515.206" r="314.606" fill="url(#paint0_linear_1969_3064)" fill-opacity="0.5" />
    </g>
    <g filter="url(#filter1_f_1969_3064)">
        <circle cx="622.8" cy="393.2" r="230.2" fill="url(#paint1_linear_1969_3064)" fill-opacity="0.5" />
    </g>
    <path d="M562.398 406.838L429.546 308.948L597.358 313.997L562.398 406.838Z" fill="#FFB703" fill-opacity="0.5" />
    <path d="M766.724 307.783L811.008 333.421H758.955L766.724 307.783Z" fill="#FFB703" fill-opacity="0.5" />
    <path
        d="M817.073 336.951C817.086 336.931 817.101 336.914 817.114 336.894C817.139 336.853 817.159 336.81 817.183 336.768C817.244 336.666 817.302 336.564 817.356 336.458C817.392 336.388 817.426 336.316 817.458 336.245C817.505 336.144 817.549 336.043 817.59 335.941C817.622 335.859 817.652 335.777 817.68 335.695C817.712 335.601 817.743 335.507 817.77 335.41C817.797 335.315 817.821 335.221 817.843 335.125C817.863 335.039 817.882 334.952 817.898 334.864C817.918 334.757 817.934 334.65 817.947 334.543C817.957 334.463 817.967 334.382 817.974 334.301C817.984 334.185 817.988 334.069 817.991 333.954C817.993 333.904 817.999 333.856 817.999 333.806C817.999 333.776 817.995 333.747 817.995 333.717C817.993 333.608 817.986 333.498 817.978 333.389C817.972 333.3 817.967 333.212 817.956 333.124C817.945 333.034 817.929 332.944 817.914 332.855C817.897 332.752 817.881 332.649 817.859 332.549C817.843 332.476 817.822 332.404 817.803 332.331C817.774 332.219 817.745 332.108 817.71 331.999C817.688 331.932 817.662 331.867 817.638 331.801C817.598 331.691 817.559 331.582 817.512 331.476C817.48 331.402 817.443 331.331 817.407 331.259C817.361 331.166 817.318 331.072 817.267 330.981C817.219 330.894 817.166 330.811 817.113 330.726C817.068 330.654 817.025 330.581 816.977 330.512C816.913 330.419 816.843 330.33 816.774 330.241C816.729 330.182 816.686 330.123 816.639 330.067C816.567 329.98 816.489 329.899 816.411 329.817C816.358 329.761 816.307 329.703 816.252 329.649C816.18 329.578 816.103 329.511 816.027 329.444C815.957 329.381 815.887 329.319 815.814 329.261C815.747 329.207 815.677 329.158 815.608 329.107C815.517 329.04 815.426 328.976 815.331 328.915C815.307 328.899 815.285 328.88 815.261 328.866L765.538 297.789C765.504 297.768 765.469 297.752 765.435 297.732C765.366 297.691 765.298 297.649 765.228 297.611C765.184 297.587 765.141 297.565 765.097 297.544C765.027 297.508 764.957 297.475 764.885 297.443C764.828 297.416 764.772 297.389 764.714 297.364C764.674 297.347 764.633 297.332 764.593 297.317C764.498 297.28 764.403 297.245 764.308 297.214C764.273 297.202 764.24 297.186 764.205 297.175C764.194 297.172 764.183 297.17 764.173 297.167C764.138 297.157 764.104 297.148 764.07 297.138C763.959 297.106 763.848 297.078 763.736 297.053C763.693 297.043 763.651 297.03 763.609 297.022C763.581 297.016 763.553 297.014 763.525 297.008C763.411 296.987 763.298 296.97 763.184 296.956C763.102 296.946 763.021 296.935 762.938 296.928C762.838 296.92 762.738 296.915 762.638 296.912C762.543 296.909 762.447 296.907 762.352 296.908C762.265 296.91 762.179 296.914 762.092 296.92C762.058 296.922 762.024 296.922 761.99 296.925C761.967 296.926 761.944 296.925 761.922 296.928C761.875 296.932 761.828 296.941 761.781 296.946C761.701 296.956 761.621 296.968 761.541 296.98C761.515 296.984 761.488 296.987 761.463 296.992C761.427 296.998 761.391 297.001 761.356 297.008C761.313 297.016 761.271 297.029 761.228 297.038C761.148 297.055 761.069 297.076 760.989 297.096C760.889 297.122 760.791 297.148 760.694 297.179C760.608 297.207 760.524 297.237 760.44 297.268C760.378 297.29 760.315 297.31 760.255 297.335C760.229 297.345 760.204 297.359 760.179 297.37C760.088 297.408 759.999 297.451 759.911 297.493C759.85 297.523 759.788 297.55 759.728 297.581C759.722 297.584 759.715 297.586 759.709 297.59L670.701 345.061L617.794 280.396C617.792 280.393 617.788 280.39 617.786 280.387C617.77 280.367 617.753 280.348 617.736 280.327C617.694 280.279 617.649 280.234 617.607 280.187C617.524 280.095 617.442 280.003 617.353 279.916C617.302 279.866 617.245 279.82 617.192 279.772C617.107 279.695 617.024 279.617 616.935 279.545C616.85 279.478 616.76 279.416 616.672 279.352C616.665 279.348 616.659 279.342 616.652 279.338C616.594 279.297 616.538 279.251 616.478 279.212C616.388 279.153 616.293 279.102 616.2 279.047C616.129 279.006 616.06 278.962 615.988 278.924C615.901 278.878 615.809 278.84 615.719 278.799C615.636 278.76 615.554 278.718 615.469 278.684C615.389 278.652 615.305 278.626 615.222 278.597C615.123 278.562 615.025 278.526 614.925 278.496C614.912 278.492 614.9 278.487 614.887 278.484C614.799 278.458 614.71 278.443 614.622 278.422C614.542 278.403 614.462 278.381 614.381 278.366C614.347 278.36 614.313 278.352 614.279 278.346L440.281 247.272C440.224 247.261 440.167 247.258 440.11 247.25C440.005 247.234 439.901 247.22 439.796 247.209C439.699 247.2 439.605 247.195 439.509 247.192C439.418 247.188 439.327 247.185 439.236 247.185C439.132 247.185 439.029 247.188 438.926 247.195C438.842 247.199 438.757 247.206 438.673 247.213C438.569 247.223 438.466 247.237 438.363 247.254C438.278 247.267 438.193 247.282 438.108 247.298C438.01 247.317 437.914 247.34 437.818 247.365C437.728 247.387 437.639 247.412 437.55 247.439C437.461 247.467 437.374 247.496 437.286 247.528C437.194 247.561 437.103 247.596 437.012 247.634C436.928 247.669 436.847 247.707 436.764 247.746C436.676 247.788 436.588 247.832 436.501 247.878C436.416 247.924 436.334 247.972 436.252 248.022C436.174 248.069 436.095 248.118 436.018 248.169C435.928 248.23 435.841 248.293 435.755 248.358C435.71 248.393 435.662 248.422 435.618 248.458C435.597 248.474 435.579 248.493 435.558 248.51C435.471 248.581 435.388 248.658 435.305 248.735C435.245 248.79 435.184 248.844 435.127 248.902C435.052 248.976 434.983 249.055 434.912 249.134C434.854 249.199 434.794 249.263 434.74 249.33C434.677 249.406 434.62 249.487 434.562 249.567C434.507 249.64 434.451 249.713 434.401 249.789C434.348 249.869 434.301 249.952 434.252 250.035C434.204 250.116 434.154 250.195 434.11 250.277C434.067 250.36 434.029 250.446 433.989 250.531C433.948 250.619 433.905 250.706 433.869 250.795C433.835 250.877 433.807 250.963 433.776 251.047C433.742 251.144 433.706 251.24 433.678 251.338C433.653 251.419 433.634 251.503 433.613 251.586C433.587 251.691 433.56 251.796 433.54 251.903C433.535 251.93 433.526 251.956 433.521 251.984C433.511 252.043 433.507 252.101 433.499 252.16C433.484 252.262 433.469 252.365 433.46 252.468C433.451 252.565 433.446 252.66 433.442 252.756C433.438 252.847 433.435 252.939 433.435 253.031C433.435 253.133 433.44 253.235 433.445 253.337C433.45 253.423 433.456 253.509 433.465 253.595C433.475 253.697 433.489 253.798 433.504 253.899C433.518 253.986 433.533 254.073 433.55 254.16C433.57 254.256 433.591 254.351 433.616 254.446C433.64 254.536 433.664 254.627 433.692 254.717C433.719 254.804 433.748 254.891 433.779 254.978C433.813 255.07 433.848 255.163 433.886 255.254C433.921 255.337 433.958 255.419 433.997 255.501C434.039 255.589 434.082 255.677 434.129 255.764C434.174 255.849 434.223 255.93 434.272 256.013C434.319 256.092 434.367 256.17 434.42 256.247C434.479 256.337 434.543 256.423 434.608 256.508C434.642 256.554 434.671 256.602 434.708 256.647L471.884 303.118H426.827C426.774 303.118 426.723 303.124 426.671 303.126C426.564 303.129 426.457 303.134 426.35 303.142C426.256 303.15 426.163 303.161 426.07 303.172C425.979 303.184 425.888 303.198 425.798 303.214C425.696 303.231 425.595 303.253 425.494 303.277C425.414 303.295 425.334 303.316 425.254 303.339C425.15 303.367 425.049 303.399 424.948 303.433C424.87 303.46 424.792 303.489 424.714 303.519C424.619 303.556 424.525 303.595 424.432 303.637C424.35 303.674 424.268 303.714 424.188 303.755C424.105 303.798 424.022 303.841 423.941 303.888C423.855 303.937 423.77 303.989 423.687 304.043C423.614 304.089 423.544 304.137 423.474 304.186C423.388 304.245 423.305 304.308 423.223 304.374C423.156 304.426 423.091 304.48 423.028 304.535C422.951 304.602 422.875 304.67 422.801 304.741C422.733 304.806 422.669 304.872 422.604 304.939C422.541 305.006 422.478 305.074 422.418 305.145C422.347 305.227 422.28 305.312 422.214 305.398C422.182 305.439 422.147 305.476 422.116 305.518C422.099 305.543 422.085 305.568 422.067 305.593C422.001 305.688 421.939 305.785 421.878 305.883C421.837 305.95 421.794 306.017 421.756 306.084C421.702 306.18 421.653 306.278 421.604 306.376C421.567 306.452 421.529 306.527 421.495 306.603C421.454 306.695 421.42 306.789 421.384 306.883C421.351 306.969 421.317 307.055 421.288 307.143C421.26 307.229 421.237 307.318 421.213 307.407C421.186 307.504 421.158 307.602 421.138 307.701C421.12 307.783 421.107 307.866 421.092 307.948C421.074 308.056 421.055 308.164 421.043 308.273C421.033 308.351 421.029 308.431 421.023 308.511C421.015 308.625 421.008 308.74 421.006 308.854C421.004 308.884 421 308.914 421 308.945C421 308.998 421.006 309.048 421.008 309.1C421.011 309.207 421.015 309.315 421.024 309.422C421.032 309.516 421.043 309.608 421.054 309.702C421.066 309.793 421.08 309.884 421.096 309.974C421.114 310.076 421.136 310.177 421.159 310.277C421.179 310.359 421.199 310.44 421.221 310.52C421.25 310.622 421.281 310.722 421.315 310.823C421.343 310.903 421.371 310.981 421.402 311.06C421.439 311.154 421.478 311.247 421.519 311.339C421.557 311.422 421.597 311.506 421.639 311.588C421.681 311.669 421.723 311.75 421.768 311.83C421.818 311.917 421.872 312.004 421.926 312.089C421.971 312.16 422.018 312.23 422.066 312.298C422.127 312.384 422.19 312.469 422.256 312.552C422.308 312.617 422.361 312.682 422.416 312.745C422.482 312.822 422.551 312.899 422.624 312.973C422.687 313.04 422.753 313.104 422.821 313.168C422.889 313.232 422.956 313.295 423.028 313.356C423.11 313.427 423.195 313.494 423.28 313.56C423.321 313.592 423.358 313.626 423.401 313.657L557.265 411.013L532.956 569.025C532.952 569.044 532.95 569.062 532.947 569.082L532.944 569.1C532.94 569.124 532.94 569.148 532.937 569.172C532.914 569.337 532.895 569.503 532.886 569.667C532.882 569.733 532.884 569.796 532.883 569.861C532.88 569.984 532.877 570.108 532.882 570.231C532.886 570.327 532.896 570.421 532.905 570.516C532.914 570.606 532.919 570.696 532.931 570.785C532.947 570.896 532.97 571.006 532.991 571.116C533.006 571.189 533.018 571.262 533.036 571.335C533.062 571.447 533.095 571.555 533.128 571.665C533.149 571.736 533.168 571.806 533.192 571.876C533.227 571.977 533.268 572.076 533.308 572.175C533.339 572.252 533.369 572.33 533.404 572.405C533.443 572.49 533.486 572.572 533.529 572.655C533.574 572.742 533.617 572.829 533.666 572.913C533.706 572.982 533.75 573.047 533.792 573.114C533.851 573.207 533.91 573.3 533.976 573.39C534.017 573.447 534.061 573.501 534.104 573.557C534.176 573.65 534.248 573.742 534.327 573.832C534.373 573.884 534.424 573.934 534.472 573.986C534.551 574.07 534.63 574.154 534.714 574.233C534.777 574.292 534.845 574.348 534.911 574.404C534.986 574.469 535.059 574.534 535.138 574.595C535.233 574.669 535.334 574.737 535.435 574.805C535.491 574.842 535.543 574.882 535.599 574.917C535.739 575.006 535.885 575.086 536.034 575.163C536.055 575.174 536.074 575.187 536.095 575.197C536.097 575.198 536.1 575.199 536.102 575.201C536.299 575.298 536.501 575.385 536.71 575.462C536.762 575.48 536.815 575.493 536.867 575.511C537.01 575.558 537.155 575.603 537.303 575.639C537.401 575.664 537.499 575.681 537.597 575.7C537.67 575.714 537.741 575.734 537.815 575.745C537.84 575.749 537.864 575.747 537.889 575.751C538.158 575.789 538.428 575.814 538.697 575.814C538.7 575.814 538.703 575.814 538.705 575.814H538.709C538.949 575.814 539.186 575.793 539.422 575.764C539.468 575.758 539.514 575.752 539.561 575.745C540.042 575.674 540.506 575.542 540.946 575.358C540.989 575.34 541.031 575.323 541.073 575.305C541.286 575.21 541.493 575.104 541.693 574.985C541.729 574.963 541.763 574.938 541.799 574.915C541.967 574.81 542.128 574.696 542.285 574.574C542.331 574.539 542.378 574.504 542.423 574.466C542.596 574.323 542.761 574.168 542.917 574.004C542.956 573.963 542.993 573.92 543.031 573.878C543.188 573.704 543.337 573.522 543.473 573.33C543.477 573.324 543.483 573.318 543.487 573.313C543.633 573.101 543.763 572.878 543.882 572.646C543.891 572.627 543.905 572.611 543.914 572.592L586.474 487.472L727.483 426.164C727.521 426.148 727.555 426.127 727.593 426.11C727.705 426.058 727.816 426.003 727.926 425.944C727.936 425.939 727.947 425.934 727.958 425.929C727.976 425.919 727.994 425.912 728.011 425.902C728.052 425.88 728.089 425.852 728.13 425.829C728.217 425.777 728.304 425.723 728.389 425.666C728.445 425.629 728.502 425.594 728.556 425.555C728.577 425.54 728.596 425.523 728.617 425.507C728.681 425.461 728.743 425.412 728.805 425.362C728.819 425.351 728.837 425.343 728.851 425.33C728.866 425.318 728.879 425.304 728.894 425.291C728.948 425.246 729 425.201 729.053 425.153C729.104 425.107 729.154 425.058 729.203 425.011C729.206 425.008 729.209 425.006 729.213 425.003C729.234 424.982 729.258 424.964 729.279 424.942C729.296 424.926 729.31 424.908 729.327 424.892C729.366 424.852 729.404 424.811 729.442 424.77C729.49 424.717 729.536 424.663 729.582 424.609C729.627 424.557 729.674 424.505 729.717 424.452C729.742 424.421 729.765 424.39 729.789 424.358C729.808 424.334 729.828 424.309 729.847 424.284C729.867 424.256 729.885 424.226 729.905 424.198C729.911 424.19 729.916 424.181 729.923 424.172C729.968 424.108 730.014 424.045 730.056 423.98C730.07 423.959 730.083 423.939 730.096 423.918C730.141 423.846 730.182 423.771 730.224 423.697C730.264 423.627 730.305 423.559 730.341 423.488C730.343 423.485 730.345 423.482 730.347 423.478C730.352 423.467 730.358 423.456 730.363 423.446C730.405 423.362 730.442 423.275 730.48 423.19C730.512 423.12 730.545 423.051 730.573 422.979C730.578 422.968 730.583 422.956 730.588 422.944C730.623 422.853 730.653 422.759 730.684 422.665C730.689 422.652 730.693 422.638 730.698 422.625C730.703 422.608 730.713 422.593 730.718 422.575L730.742 422.501C730.742 422.499 730.742 422.498 730.743 422.496L756.91 339.634H812.158C812.162 339.634 812.166 339.635 812.169 339.635C812.182 339.635 812.196 339.633 812.209 339.633C812.424 339.631 812.635 339.617 812.844 339.593C812.903 339.586 812.962 339.575 813.02 339.567C813.189 339.542 813.356 339.512 813.52 339.473C813.58 339.459 813.64 339.442 813.7 339.426C813.868 339.381 814.032 339.328 814.192 339.268C814.243 339.25 814.294 339.233 814.345 339.212C814.554 339.129 814.758 339.036 814.954 338.93C814.959 338.927 814.964 338.923 814.968 338.921C815.154 338.819 815.332 338.706 815.505 338.585C815.571 338.539 815.633 338.49 815.696 338.442C815.812 338.354 815.924 338.262 816.032 338.167C816.094 338.112 816.156 338.057 816.216 337.999C816.36 337.861 816.497 337.716 816.625 337.564C816.64 337.547 816.655 337.532 816.67 337.515C816.816 337.335 816.948 337.145 817.073 336.951ZM760.694 302.732L725.936 414.995L674.66 350.123L760.694 302.732ZM453.487 261.467L605.218 288.562L561.867 396.941L453.487 261.467ZM712.023 413.965L571.919 403.188L615.028 295.416L712.023 413.965ZM586.474 482.294L567.447 411.013L723.606 421.599L586.474 482.294ZM576.033 482.294L550.112 534.136L564.924 437.858L576.033 482.294ZM541.809 391.299L429.934 309.422L481.207 314.772L541.809 391.299ZM765.742 311.658L791.856 327.979H760.588L765.742 311.658Z"
        fill="#023047" />
    <path d="M563.954 407.615L441.591 253.399L612.122 283.699L563.954 407.615Z" fill="#FFB703" />
    <path d="M539.091 571.549L563.176 409.952L582.987 483.758L539.091 571.549Z" fill="#FFB703" />
    <path d="M586.093 482.587L567.058 410.723L725.159 421.6L586.093 482.587Z" fill="url(#paint2_radial_1969_3064)" />
    <path d="M568.224 407.616L616.392 285.253L725.159 418.493L568.224 407.616Z" fill="#FFB703" />
    <path d="M674.272 350.124L761.674 302.732L726.325 415.772L674.272 350.124Z" fill="url(#paint3_radial_1969_3064)" />
    <path d="M361.424 491.238L311.229 454.252L374.634 456.16L361.424 491.238Z" fill="#58E997" fill-opacity="0.5" />
    <path d="M438.626 453.812L455.358 463.499H435.691L438.626 453.812Z" fill="#58E997" fill-opacity="0.5" />
    <path
        d="M457.65 464.833C457.655 464.825 457.66 464.819 457.665 464.811C457.675 464.796 457.682 464.78 457.691 464.764C457.714 464.725 457.736 464.687 457.757 464.647C457.77 464.62 457.783 464.593 457.795 464.566C457.813 464.528 457.829 464.49 457.845 464.451C457.857 464.42 457.869 464.389 457.879 464.358C457.891 464.323 457.903 464.287 457.913 464.251C457.923 464.215 457.932 464.179 457.941 464.143C457.948 464.11 457.955 464.077 457.962 464.044C457.969 464.004 457.975 463.964 457.98 463.923C457.984 463.893 457.988 463.862 457.99 463.831C457.994 463.788 457.996 463.744 457.997 463.7C457.997 463.681 458 463.663 458 463.644C458 463.633 457.998 463.622 457.998 463.611C457.997 463.57 457.995 463.528 457.992 463.487C457.989 463.453 457.987 463.42 457.983 463.387C457.979 463.353 457.973 463.319 457.968 463.285C457.961 463.246 457.955 463.207 457.947 463.17C457.941 463.142 457.933 463.115 457.926 463.087C457.915 463.045 457.904 463.003 457.891 462.962C457.882 462.936 457.872 462.912 457.863 462.887C457.848 462.845 457.833 462.804 457.816 462.764C457.804 462.736 457.79 462.71 457.776 462.682C457.759 462.647 457.742 462.612 457.723 462.577C457.705 462.544 457.685 462.513 457.665 462.481C457.648 462.454 457.632 462.426 457.613 462.4C457.589 462.365 457.563 462.331 457.537 462.297C457.52 462.275 457.504 462.253 457.486 462.232C457.458 462.199 457.429 462.168 457.4 462.137C457.38 462.116 457.36 462.094 457.34 462.074C457.312 462.047 457.283 462.022 457.254 461.996C457.228 461.973 457.202 461.949 457.174 461.927C457.149 461.907 457.122 461.888 457.096 461.869C457.062 461.844 457.028 461.82 456.992 461.796C456.983 461.79 456.974 461.783 456.965 461.778L438.178 450.036C438.165 450.028 438.152 450.022 438.139 450.014C438.113 449.999 438.088 449.983 438.061 449.969C438.044 449.96 438.028 449.952 438.012 449.943C437.985 449.93 437.958 449.918 437.931 449.905C437.91 449.895 437.889 449.885 437.867 449.876C437.852 449.869 437.836 449.864 437.821 449.858C437.785 449.844 437.749 449.831 437.713 449.819C437.7 449.814 437.688 449.808 437.674 449.804C437.67 449.803 437.666 449.802 437.662 449.801C437.649 449.797 437.636 449.794 437.623 449.79C437.582 449.778 437.54 449.768 437.497 449.758C437.481 449.754 437.465 449.749 437.449 449.746C437.439 449.744 437.428 449.743 437.417 449.741C437.375 449.733 437.332 449.727 437.289 449.721C437.258 449.717 437.227 449.714 437.196 449.711C437.158 449.708 437.12 449.706 437.082 449.705C437.046 449.704 437.01 449.703 436.974 449.703C436.942 449.704 436.909 449.706 436.876 449.708C436.863 449.709 436.85 449.709 436.837 449.709C436.829 449.71 436.82 449.71 436.812 449.711C436.794 449.712 436.776 449.716 436.759 449.718C436.728 449.721 436.698 449.726 436.668 449.731C436.658 449.732 436.648 449.733 436.638 449.735C436.625 449.737 436.611 449.738 436.598 449.741C436.582 449.744 436.566 449.749 436.55 449.752C436.519 449.759 436.49 449.767 436.459 449.774C436.422 449.784 436.384 449.794 436.348 449.806C436.315 449.816 436.284 449.827 436.252 449.839C436.229 449.848 436.205 449.855 436.182 449.864C436.172 449.868 436.163 449.874 436.153 449.878C436.119 449.892 436.085 449.908 436.052 449.924C436.029 449.935 436.005 449.946 435.983 449.958C435.981 449.959 435.978 449.96 435.976 449.961L402.346 467.897L382.355 443.464C382.355 443.463 382.353 443.462 382.352 443.461C382.346 443.453 382.34 443.446 382.333 443.439C382.318 443.42 382.301 443.403 382.285 443.385C382.254 443.351 382.222 443.316 382.189 443.283C382.17 443.264 382.148 443.247 382.128 443.229C382.096 443.2 382.064 443.17 382.031 443.143C381.999 443.117 381.965 443.094 381.932 443.07C381.929 443.068 381.927 443.066 381.924 443.065C381.902 443.049 381.881 443.032 381.858 443.017C381.824 442.995 381.788 442.975 381.753 442.955C381.726 442.939 381.7 442.922 381.673 442.908C381.64 442.891 381.605 442.876 381.571 442.861C381.54 442.846 381.509 442.831 381.477 442.818C381.447 442.805 381.415 442.796 381.383 442.785C381.346 442.772 381.309 442.758 381.271 442.747C381.267 442.745 381.262 442.743 381.257 442.742C381.224 442.732 381.19 442.726 381.157 442.718C381.127 442.711 381.097 442.703 381.066 442.697C381.053 442.695 381.04 442.692 381.027 442.69L315.285 430.949C315.263 430.945 315.242 430.944 315.22 430.941C315.181 430.935 315.141 430.929 315.102 430.925C315.065 430.922 315.029 430.92 314.993 430.919C314.959 430.917 314.925 430.916 314.89 430.916C314.851 430.916 314.812 430.917 314.773 430.92C314.741 430.922 314.709 430.924 314.677 430.927C314.638 430.931 314.599 430.936 314.56 430.942C314.528 430.947 314.496 430.953 314.464 430.959C314.427 430.966 314.391 430.975 314.354 430.984C314.321 430.993 314.287 431.002 314.253 431.012C314.22 431.023 314.187 431.034 314.154 431.046C314.119 431.058 314.084 431.072 314.05 431.086C314.018 431.099 313.987 431.114 313.956 431.128C313.923 431.144 313.89 431.161 313.857 431.178C313.825 431.195 313.794 431.214 313.763 431.232C313.733 431.25 313.704 431.269 313.674 431.288C313.64 431.311 313.608 431.335 313.575 431.36C313.558 431.372 313.54 431.384 313.523 431.397C313.515 431.403 313.509 431.41 313.501 431.417C313.468 431.444 313.436 431.473 313.405 431.502C313.382 431.522 313.359 431.543 313.337 431.565C313.309 431.593 313.283 431.623 313.256 431.653C313.234 431.677 313.212 431.701 313.191 431.726C313.168 431.755 313.146 431.786 313.124 431.816C313.104 431.844 313.082 431.871 313.063 431.9C313.043 431.93 313.025 431.962 313.007 431.993C312.989 432.024 312.97 432.053 312.954 432.085C312.937 432.116 312.923 432.148 312.908 432.18C312.892 432.213 312.876 432.246 312.862 432.28C312.849 432.311 312.839 432.344 312.827 432.376C312.814 432.412 312.801 432.448 312.79 432.485C312.781 432.516 312.774 432.548 312.766 432.579C312.756 432.619 312.746 432.658 312.738 432.699C312.736 432.709 312.733 432.719 312.731 432.729C312.727 432.752 312.726 432.774 312.723 432.796C312.717 432.835 312.711 432.873 312.708 432.912C312.704 432.949 312.703 432.985 312.701 433.021C312.7 433.056 312.698 433.09 312.698 433.125C312.698 433.164 312.7 433.202 312.702 433.241C312.704 433.273 312.706 433.305 312.71 433.338C312.713 433.377 312.719 433.415 312.725 433.453C312.73 433.486 312.735 433.519 312.742 433.551C312.749 433.588 312.757 433.624 312.767 433.659C312.776 433.694 312.785 433.728 312.795 433.762C312.806 433.795 312.817 433.828 312.828 433.861C312.841 433.895 312.854 433.93 312.869 433.965C312.882 433.996 312.896 434.027 312.911 434.058C312.927 434.092 312.943 434.125 312.961 434.158C312.978 434.19 312.996 434.22 313.015 434.252C313.032 434.281 313.051 434.311 313.07 434.34C313.093 434.374 313.117 434.407 313.141 434.439C313.154 434.456 313.165 434.474 313.179 434.491L327.226 452.05H310.202C310.182 452.05 310.163 452.052 310.143 452.053C310.102 452.054 310.062 452.055 310.021 452.059C309.986 452.062 309.951 452.066 309.916 452.07C309.881 452.075 309.847 452.08 309.813 452.086C309.774 452.092 309.736 452.101 309.698 452.109C309.668 452.117 309.637 452.124 309.607 452.133C309.568 452.144 309.53 452.156 309.492 452.169C309.462 452.179 309.433 452.19 309.403 452.201C309.367 452.215 309.332 452.23 309.297 452.246C309.266 452.26 309.235 452.275 309.204 452.29C309.173 452.306 309.142 452.323 309.111 452.34C309.079 452.359 309.047 452.379 309.015 452.399C308.988 452.417 308.961 452.434 308.935 452.453C308.902 452.476 308.871 452.499 308.84 452.524C308.815 452.544 308.79 452.564 308.766 452.585C308.737 452.61 308.708 452.636 308.68 452.663C308.655 452.687 308.631 452.712 308.606 452.738C308.582 452.763 308.559 452.789 308.536 452.815C308.509 452.847 308.483 452.879 308.459 452.911C308.446 452.927 308.434 452.94 308.422 452.956C308.415 452.966 308.41 452.975 308.403 452.985C308.378 453.021 308.355 453.057 308.332 453.094C308.316 453.12 308.3 453.145 308.286 453.17C308.265 453.206 308.247 453.243 308.228 453.281C308.214 453.309 308.2 453.338 308.187 453.366C308.172 453.401 308.159 453.437 308.145 453.472C308.133 453.505 308.12 453.537 308.109 453.57C308.098 453.603 308.09 453.636 308.08 453.67C308.07 453.707 308.06 453.744 308.052 453.781C308.045 453.812 308.041 453.843 308.035 453.875C308.028 453.915 308.021 453.956 308.016 453.997C308.013 454.027 308.011 454.057 308.009 454.087C308.006 454.13 308.003 454.174 308.002 454.217C308.001 454.228 308 454.239 308 454.251C308 454.271 308.002 454.29 308.003 454.31C308.004 454.35 308.006 454.391 308.009 454.431C308.012 454.467 308.016 454.502 308.021 454.537C308.025 454.572 308.03 454.606 308.036 454.64C308.043 454.679 308.051 454.717 308.06 454.755C308.068 454.785 308.075 454.816 308.084 454.846C308.095 454.885 308.106 454.923 308.119 454.961C308.129 454.991 308.14 455.021 308.152 455.05C308.166 455.086 308.181 455.121 308.196 455.156C308.21 455.187 308.226 455.219 308.241 455.25C308.257 455.281 308.273 455.311 308.29 455.341C308.309 455.374 308.329 455.407 308.35 455.439C308.367 455.466 308.385 455.492 308.403 455.518C308.426 455.551 308.45 455.583 308.475 455.614C308.494 455.639 308.514 455.663 308.535 455.687C308.56 455.716 308.586 455.745 308.614 455.773C308.638 455.798 308.663 455.823 308.688 455.847C308.714 455.871 308.739 455.895 308.766 455.918C308.797 455.945 308.829 455.97 308.862 455.995C308.877 456.007 308.891 456.02 308.907 456.031L359.486 492.816L350.301 552.518C350.299 552.525 350.299 552.532 350.297 552.54L350.296 552.547C350.295 552.556 350.295 552.565 350.294 552.574C350.285 552.636 350.278 552.699 350.274 552.761C350.273 552.786 350.274 552.81 350.273 552.834C350.272 552.881 350.271 552.927 350.273 552.974C350.274 553.01 350.278 553.046 350.282 553.081C350.285 553.116 350.287 553.15 350.291 553.183C350.297 553.225 350.306 553.267 350.314 553.308C350.32 553.336 350.324 553.364 350.331 553.391C350.341 553.433 350.353 553.474 350.366 553.516C350.374 553.542 350.381 553.569 350.39 553.595C350.403 553.634 350.419 553.671 350.434 553.708C350.446 553.738 350.457 553.767 350.47 553.795C350.485 553.827 350.501 553.858 350.517 553.89C350.534 553.922 350.551 553.955 350.569 553.987C350.584 554.013 350.601 554.038 350.617 554.063C350.639 554.098 350.661 554.134 350.686 554.168C350.702 554.189 350.718 554.21 350.734 554.23C350.762 554.266 350.789 554.301 350.819 554.334C350.836 554.354 350.855 554.373 350.874 554.393C350.904 554.424 350.933 554.456 350.965 554.486C350.989 554.508 351.014 554.529 351.039 554.551C351.068 554.575 351.095 554.6 351.125 554.623C351.161 554.651 351.199 554.676 351.238 554.702C351.258 554.716 351.278 554.731 351.299 554.744C351.352 554.778 351.408 554.808 351.464 554.837C351.472 554.842 351.479 554.846 351.487 554.85C351.488 554.851 351.489 554.851 351.489 554.852C351.564 554.889 351.64 554.921 351.719 554.95C351.739 554.957 351.759 554.962 351.779 554.969C351.833 554.987 351.887 555.004 351.943 555.017C351.98 555.026 352.017 555.033 352.054 555.04C352.082 555.046 352.109 555.053 352.137 555.057C352.146 555.059 352.155 555.058 352.165 555.059C352.266 555.074 352.368 555.083 352.47 555.083C352.471 555.083 352.472 555.083 352.473 555.083H352.474C352.565 555.083 352.655 555.076 352.744 555.064C352.761 555.062 352.779 555.06 352.796 555.057C352.978 555.03 353.154 554.981 353.32 554.911C353.336 554.904 353.352 554.898 353.368 554.891C353.448 554.855 353.526 554.815 353.602 554.77C353.616 554.762 353.628 554.752 353.642 554.744C353.705 554.704 353.766 554.661 353.825 554.615C353.843 554.601 353.861 554.588 353.878 554.574C353.943 554.52 354.005 554.461 354.064 554.399C354.079 554.384 354.093 554.368 354.108 554.352C354.167 554.286 354.223 554.217 354.275 554.145C354.276 554.142 354.278 554.14 354.28 554.138C354.335 554.058 354.384 553.974 354.429 553.886C354.432 553.879 354.437 553.873 354.441 553.866L370.522 521.705L423.8 498.54C423.814 498.534 423.827 498.526 423.841 498.52C423.884 498.5 423.926 498.48 423.967 498.457C423.971 498.455 423.975 498.454 423.979 498.452C423.986 498.448 423.993 498.445 423.999 498.442C424.015 498.433 424.029 498.423 424.044 498.414C424.077 498.394 424.11 498.374 424.142 498.352C424.163 498.338 424.185 498.325 424.205 498.31C424.213 498.305 424.22 498.298 424.228 498.292C424.252 498.275 424.276 498.256 424.299 498.238C424.305 498.233 424.311 498.23 424.317 498.226C424.322 498.221 424.327 498.216 424.333 498.211C424.353 498.194 424.373 498.176 424.393 498.159C424.412 498.141 424.431 498.123 424.45 498.105C424.451 498.104 424.452 498.103 424.453 498.102C424.461 498.094 424.47 498.087 424.478 498.079C424.485 498.073 424.49 498.066 424.496 498.06C424.511 498.045 424.525 498.029 424.54 498.014C424.558 497.994 424.575 497.973 424.593 497.953C424.61 497.933 424.627 497.914 424.644 497.894C424.653 497.882 424.662 497.87 424.671 497.858C424.678 497.849 424.686 497.84 424.693 497.83C424.7 497.82 424.707 497.808 424.715 497.798C424.717 497.795 424.719 497.791 424.721 497.788C424.738 497.764 424.756 497.74 424.772 497.715C424.777 497.707 424.782 497.7 424.787 497.692C424.804 497.665 424.819 497.636 424.835 497.608C424.85 497.582 424.866 497.556 424.88 497.53C424.88 497.528 424.881 497.527 424.882 497.526C424.884 497.522 424.886 497.517 424.888 497.513C424.904 497.482 424.918 497.449 424.932 497.417C424.944 497.39 424.957 497.364 424.967 497.337C424.969 497.333 424.971 497.328 424.973 497.324C424.986 497.289 424.997 497.254 425.009 497.218C425.011 497.213 425.013 497.208 425.014 497.203C425.016 497.197 425.02 497.191 425.022 497.185L425.031 497.156C425.031 497.156 425.031 497.155 425.031 497.155L434.918 465.847H455.793C455.794 465.847 455.796 465.847 455.797 465.847C455.802 465.847 455.807 465.846 455.812 465.846C455.893 465.845 455.973 465.84 456.052 465.831C456.074 465.828 456.096 465.824 456.118 465.821C456.182 465.812 456.245 465.8 456.307 465.786C456.33 465.78 456.353 465.774 456.375 465.768C456.439 465.751 456.501 465.731 456.561 465.708C456.58 465.701 456.6 465.695 456.619 465.687C456.698 465.656 456.775 465.621 456.849 465.58C456.851 465.58 456.853 465.578 456.855 465.577C456.925 465.539 456.992 465.496 457.057 465.45C457.082 465.433 457.106 465.414 457.13 465.396C457.173 465.363 457.216 465.328 457.256 465.292C457.28 465.271 457.303 465.251 457.326 465.229C457.38 465.176 457.432 465.122 457.48 465.064C457.486 465.058 457.492 465.052 457.497 465.046C457.553 464.978 457.603 464.906 457.65 464.833ZM436.348 451.904L423.215 494.321L403.841 469.81L436.348 451.904ZM320.275 436.312L377.604 446.55L361.224 487.499L320.275 436.312ZM417.958 493.931L365.022 489.859L381.31 449.139L417.958 493.931ZM370.522 519.748L363.333 492.816L422.335 496.816L370.522 519.748ZM366.577 519.748L356.783 539.336L362.379 502.959L366.577 519.748ZM353.646 485.367L311.376 454.431L330.748 456.453L353.646 485.367ZM438.255 455.276L448.122 461.443H436.308L438.255 455.276Z"
        fill="#FB8500" />
    <path d="M362.011 491.532L315.778 433.264L380.211 444.712L362.011 491.532Z" fill="#58E997" />
    <path d="M352.618 553.47L361.718 492.413L369.203 520.299L352.618 553.47Z" fill="#58E997" />
    <path d="M370.378 519.859L363.186 492.707L422.922 496.816L370.378 519.859Z" fill="url(#paint4_radial_1969_3064)" />
    <path d="M363.626 491.532L381.826 445.299L422.922 495.642L363.626 491.532Z" fill="#58E997" />
    <path d="M403.694 469.81L436.718 451.904L423.362 494.614L403.694 469.81Z" fill="url(#paint5_radial_1969_3064)" />
    <path d="M665.424 626.238L615.229 589.252L678.634 591.16L665.424 626.238Z" fill="#219EBC" fill-opacity="0.5" />
    <path d="M742.626 588.812L759.358 598.499H739.691L742.626 588.812Z" fill="#219EBC" fill-opacity="0.5" />
    <path
        d="M761.65 599.833C761.655 599.825 761.66 599.819 761.665 599.811C761.675 599.796 761.682 599.78 761.691 599.764C761.714 599.725 761.736 599.687 761.757 599.647C761.77 599.62 761.783 599.593 761.795 599.566C761.813 599.528 761.829 599.49 761.845 599.451C761.857 599.42 761.869 599.389 761.879 599.358C761.891 599.323 761.903 599.287 761.913 599.251C761.923 599.215 761.932 599.179 761.941 599.143C761.948 599.11 761.955 599.077 761.962 599.044C761.969 599.004 761.975 598.964 761.98 598.923C761.984 598.893 761.988 598.862 761.99 598.831C761.994 598.788 761.996 598.744 761.997 598.7C761.997 598.681 762 598.663 762 598.644C762 598.633 761.998 598.622 761.998 598.611C761.997 598.57 761.995 598.528 761.992 598.487C761.989 598.453 761.987 598.42 761.983 598.387C761.979 598.353 761.973 598.319 761.968 598.285C761.961 598.246 761.955 598.207 761.947 598.17C761.941 598.142 761.933 598.115 761.926 598.087C761.915 598.045 761.904 598.003 761.891 597.962C761.882 597.936 761.872 597.912 761.863 597.887C761.848 597.845 761.833 597.804 761.816 597.764C761.804 597.736 761.79 597.71 761.776 597.682C761.759 597.647 761.742 597.612 761.723 597.577C761.705 597.544 761.685 597.513 761.665 597.481C761.648 597.454 761.632 597.426 761.613 597.4C761.589 597.365 761.563 597.331 761.537 597.297C761.52 597.275 761.504 597.253 761.486 597.232C761.458 597.199 761.429 597.168 761.4 597.137C761.38 597.116 761.36 597.094 761.34 597.074C761.312 597.047 761.283 597.022 761.254 596.996C761.228 596.973 761.202 596.949 761.174 596.927C761.149 596.907 761.122 596.888 761.096 596.869C761.062 596.844 761.028 596.82 760.992 596.796C760.983 596.79 760.974 596.783 760.965 596.778L742.178 585.036C742.165 585.028 742.152 585.022 742.139 585.014C742.113 584.999 742.088 584.983 742.061 584.969C742.044 584.96 742.028 584.952 742.012 584.943C741.985 584.93 741.958 584.918 741.931 584.905C741.91 584.895 741.889 584.885 741.867 584.876C741.852 584.869 741.836 584.864 741.821 584.858C741.785 584.844 741.749 584.831 741.713 584.819C741.7 584.814 741.688 584.808 741.674 584.804C741.67 584.803 741.666 584.802 741.662 584.801C741.649 584.797 741.636 584.794 741.623 584.79C741.582 584.778 741.54 584.768 741.497 584.758C741.481 584.754 741.465 584.749 741.449 584.746C741.439 584.744 741.428 584.743 741.417 584.741C741.375 584.733 741.332 584.727 741.289 584.721C741.258 584.717 741.227 584.714 741.196 584.711C741.158 584.708 741.12 584.706 741.082 584.705C741.046 584.704 741.01 584.703 740.974 584.703C740.942 584.704 740.909 584.706 740.876 584.708C740.863 584.709 740.85 584.709 740.837 584.709C740.829 584.71 740.82 584.71 740.812 584.711C740.794 584.712 740.776 584.716 740.759 584.718C740.728 584.721 740.698 584.726 740.668 584.731C740.658 584.732 740.648 584.733 740.638 584.735C740.625 584.737 740.611 584.738 740.598 584.741C740.582 584.744 740.566 584.749 740.55 584.752C740.519 584.759 740.49 584.767 740.459 584.774C740.422 584.784 740.384 584.794 740.348 584.806C740.315 584.816 740.284 584.827 740.252 584.839C740.229 584.848 740.205 584.855 740.182 584.864C740.172 584.868 740.163 584.874 740.153 584.878C740.119 584.892 740.085 584.908 740.052 584.924C740.029 584.935 740.005 584.946 739.983 584.958C739.981 584.959 739.978 584.96 739.976 584.961L706.346 602.897L686.355 578.464C686.355 578.463 686.353 578.462 686.352 578.461C686.346 578.453 686.34 578.446 686.333 578.439C686.318 578.42 686.301 578.403 686.285 578.385C686.254 578.351 686.222 578.316 686.189 578.283C686.17 578.264 686.148 578.247 686.128 578.229C686.096 578.2 686.064 578.17 686.031 578.143C685.999 578.117 685.965 578.094 685.932 578.07C685.929 578.068 685.927 578.066 685.924 578.065C685.902 578.049 685.881 578.032 685.858 578.017C685.824 577.995 685.788 577.975 685.753 577.955C685.726 577.939 685.7 577.922 685.673 577.908C685.64 577.891 685.605 577.876 685.571 577.861C685.54 577.846 685.509 577.831 685.477 577.818C685.447 577.805 685.415 577.796 685.383 577.785C685.346 577.772 685.309 577.758 685.271 577.747C685.267 577.745 685.262 577.743 685.257 577.742C685.224 577.732 685.19 577.726 685.157 577.718C685.127 577.711 685.097 577.703 685.066 577.697C685.053 577.695 685.04 577.692 685.027 577.69L619.285 565.949C619.263 565.945 619.242 565.944 619.22 565.941C619.181 565.935 619.141 565.929 619.102 565.925C619.065 565.922 619.029 565.92 618.993 565.919C618.959 565.917 618.925 565.916 618.89 565.916C618.851 565.916 618.812 565.917 618.773 565.92C618.741 565.922 618.709 565.924 618.677 565.927C618.638 565.931 618.599 565.936 618.56 565.942C618.528 565.947 618.496 565.953 618.464 565.959C618.427 565.966 618.391 565.975 618.354 565.984C618.321 565.993 618.287 566.002 618.253 566.012C618.22 566.023 618.187 566.034 618.154 566.046C618.119 566.058 618.084 566.072 618.05 566.086C618.018 566.099 617.987 566.114 617.956 566.128C617.923 566.144 617.89 566.161 617.857 566.178C617.825 566.195 617.794 566.214 617.763 566.232C617.733 566.25 617.704 566.269 617.674 566.288C617.64 566.311 617.608 566.335 617.575 566.36C617.558 566.372 617.54 566.384 617.523 566.397C617.515 566.403 617.509 566.41 617.501 566.417C617.468 566.444 617.436 566.473 617.405 566.502C617.382 566.522 617.359 566.543 617.337 566.565C617.309 566.593 617.283 566.623 617.256 566.653C617.234 566.677 617.212 566.701 617.191 566.726C617.168 566.755 617.146 566.786 617.124 566.816C617.104 566.844 617.082 566.871 617.063 566.9C617.043 566.93 617.025 566.962 617.007 566.993C616.989 567.024 616.97 567.053 616.954 567.085C616.937 567.116 616.923 567.148 616.908 567.18C616.892 567.213 616.876 567.246 616.862 567.28C616.849 567.311 616.839 567.344 616.827 567.376C616.814 567.412 616.801 567.448 616.79 567.485C616.781 567.516 616.774 567.548 616.766 567.579C616.756 567.619 616.746 567.658 616.738 567.699C616.736 567.709 616.733 567.719 616.731 567.729C616.727 567.752 616.726 567.774 616.723 567.796C616.717 567.835 616.711 567.873 616.708 567.912C616.704 567.949 616.703 567.985 616.701 568.021C616.7 568.056 616.698 568.09 616.698 568.125C616.698 568.164 616.7 568.202 616.702 568.241C616.704 568.273 616.706 568.305 616.71 568.338C616.713 568.377 616.719 568.415 616.725 568.453C616.73 568.486 616.735 568.519 616.742 568.551C616.749 568.588 616.757 568.624 616.767 568.659C616.776 568.694 616.785 568.728 616.795 568.762C616.806 568.795 616.817 568.828 616.828 568.861C616.841 568.895 616.854 568.93 616.869 568.965C616.882 568.996 616.896 569.027 616.911 569.058C616.927 569.092 616.943 569.125 616.961 569.158C616.978 569.19 616.996 569.22 617.015 569.252C617.032 569.281 617.051 569.311 617.07 569.34C617.093 569.374 617.117 569.407 617.141 569.439C617.154 569.456 617.165 569.474 617.179 569.491L631.226 587.05H614.202C614.182 587.05 614.163 587.052 614.143 587.053C614.102 587.054 614.062 587.055 614.021 587.059C613.986 587.062 613.951 587.066 613.916 587.07C613.881 587.075 613.847 587.08 613.813 587.086C613.774 587.092 613.736 587.101 613.698 587.109C613.668 587.117 613.637 587.124 613.607 587.133C613.568 587.144 613.53 587.156 613.492 587.169C613.462 587.179 613.433 587.19 613.403 587.201C613.367 587.215 613.332 587.23 613.297 587.246C613.266 587.26 613.235 587.275 613.204 587.29C613.173 587.306 613.142 587.323 613.111 587.34C613.079 587.359 613.047 587.379 613.015 587.399C612.988 587.417 612.961 587.434 612.935 587.453C612.902 587.476 612.871 587.499 612.84 587.524C612.815 587.544 612.79 587.564 612.766 587.585C612.737 587.61 612.708 587.636 612.68 587.663C612.655 587.687 612.631 587.712 612.606 587.738C612.582 587.763 612.559 587.789 612.536 587.815C612.509 587.847 612.483 587.879 612.459 587.911C612.446 587.927 612.434 587.94 612.422 587.956C612.415 587.966 612.41 587.975 612.403 587.985C612.378 588.021 612.355 588.057 612.332 588.094C612.316 588.12 612.3 588.145 612.286 588.17C612.265 588.206 612.247 588.243 612.228 588.281C612.214 588.309 612.2 588.338 612.187 588.366C612.172 588.401 612.159 588.437 612.145 588.472C612.133 588.505 612.12 588.537 612.109 588.57C612.098 588.603 612.09 588.636 612.08 588.67C612.07 588.707 612.06 588.744 612.052 588.781C612.045 588.812 612.041 588.843 612.035 588.875C612.028 588.915 612.021 588.956 612.016 588.997C612.013 589.027 612.011 589.057 612.009 589.087C612.006 589.13 612.003 589.174 612.002 589.217C612.001 589.228 612 589.239 612 589.251C612 589.271 612.002 589.29 612.003 589.31C612.004 589.35 612.006 589.391 612.009 589.431C612.012 589.467 612.016 589.502 612.021 589.537C612.025 589.572 612.03 589.606 612.036 589.64C612.043 589.679 612.051 589.717 612.06 589.755C612.068 589.785 612.075 589.816 612.084 589.846C612.095 589.885 612.106 589.923 612.119 589.961C612.129 589.991 612.14 590.021 612.152 590.05C612.166 590.086 612.181 590.121 612.196 590.156C612.21 590.187 612.226 590.219 612.241 590.25C612.257 590.281 612.273 590.311 612.29 590.341C612.309 590.374 612.329 590.407 612.35 590.439C612.367 590.466 612.385 590.492 612.403 590.518C612.426 590.551 612.45 590.583 612.475 590.614C612.494 590.639 612.514 590.663 612.535 590.687C612.56 590.716 612.586 590.745 612.614 590.773C612.638 590.798 612.663 590.823 612.688 590.847C612.714 590.871 612.739 590.895 612.766 590.918C612.797 590.945 612.829 590.97 612.862 590.995C612.877 591.007 612.891 591.02 612.907 591.031L663.486 627.816L654.301 687.518C654.299 687.525 654.299 687.532 654.297 687.54L654.296 687.547C654.295 687.556 654.295 687.565 654.294 687.574C654.285 687.636 654.278 687.699 654.274 687.761C654.273 687.786 654.274 687.81 654.273 687.834C654.272 687.881 654.271 687.927 654.273 687.974C654.274 688.01 654.278 688.046 654.282 688.081C654.285 688.116 654.287 688.15 654.291 688.183C654.297 688.225 654.306 688.267 654.314 688.308C654.32 688.336 654.324 688.364 654.331 688.391C654.341 688.433 654.353 688.474 654.366 688.516C654.374 688.542 654.381 688.569 654.39 688.595C654.403 688.634 654.419 688.671 654.434 688.708C654.446 688.738 654.457 688.767 654.47 688.795C654.485 688.827 654.501 688.858 654.517 688.89C654.534 688.922 654.551 688.955 654.569 688.987C654.584 689.013 654.601 689.038 654.617 689.063C654.639 689.098 654.661 689.134 654.686 689.168C654.702 689.189 654.718 689.21 654.734 689.23C654.762 689.266 654.789 689.301 654.819 689.334C654.836 689.354 654.855 689.373 654.874 689.393C654.904 689.424 654.933 689.456 654.965 689.486C654.989 689.508 655.014 689.529 655.039 689.551C655.068 689.575 655.095 689.6 655.125 689.623C655.161 689.651 655.199 689.676 655.238 689.702C655.258 689.716 655.278 689.731 655.299 689.744C655.352 689.778 655.408 689.808 655.464 689.837C655.472 689.842 655.479 689.846 655.487 689.85C655.488 689.851 655.489 689.851 655.489 689.852C655.564 689.889 655.64 689.921 655.719 689.95C655.739 689.957 655.759 689.962 655.779 689.969C655.833 689.987 655.887 690.004 655.943 690.017C655.98 690.026 656.017 690.033 656.054 690.04C656.082 690.046 656.109 690.053 656.137 690.057C656.146 690.059 656.155 690.058 656.165 690.059C656.266 690.074 656.368 690.083 656.47 690.083C656.471 690.083 656.472 690.083 656.473 690.083H656.474C656.565 690.083 656.655 690.076 656.744 690.064C656.761 690.062 656.779 690.06 656.796 690.057C656.978 690.03 657.154 689.981 657.32 689.911C657.336 689.904 657.352 689.898 657.368 689.891C657.448 689.855 657.526 689.815 657.602 689.77C657.616 689.762 657.628 689.752 657.642 689.744C657.705 689.704 657.766 689.661 657.825 689.615C657.843 689.601 657.861 689.588 657.878 689.574C657.943 689.52 658.005 689.461 658.064 689.399C658.079 689.384 658.093 689.368 658.108 689.352C658.167 689.286 658.223 689.217 658.275 689.145C658.276 689.142 658.278 689.14 658.28 689.138C658.335 689.058 658.384 688.974 658.429 688.886C658.432 688.879 658.437 688.873 658.441 688.866L674.522 656.705L727.8 633.54C727.814 633.534 727.827 633.526 727.841 633.52C727.884 633.5 727.926 633.48 727.967 633.457C727.971 633.455 727.975 633.454 727.979 633.452C727.986 633.448 727.993 633.445 727.999 633.442C728.015 633.433 728.029 633.423 728.044 633.414C728.077 633.394 728.11 633.374 728.142 633.352C728.163 633.338 728.185 633.325 728.205 633.31C728.213 633.305 728.22 633.298 728.228 633.292C728.252 633.275 728.276 633.256 728.299 633.238C728.305 633.233 728.311 633.23 728.317 633.226C728.322 633.221 728.327 633.216 728.333 633.211C728.353 633.194 728.373 633.176 728.393 633.159C728.412 633.141 728.431 633.123 728.45 633.105C728.451 633.104 728.452 633.103 728.453 633.102C728.461 633.094 728.47 633.087 728.478 633.079C728.485 633.073 728.49 633.066 728.496 633.06C728.511 633.045 728.525 633.029 728.54 633.014C728.558 632.994 728.575 632.973 728.593 632.953C728.61 632.933 728.627 632.914 728.644 632.894C728.653 632.882 728.662 632.87 728.671 632.858C728.678 632.849 728.686 632.84 728.693 632.83C728.7 632.82 728.707 632.808 728.715 632.798C728.717 632.795 728.719 632.791 728.721 632.788C728.738 632.764 728.756 632.74 728.772 632.715C728.777 632.707 728.782 632.7 728.787 632.692C728.804 632.665 728.819 632.636 728.835 632.608C728.85 632.582 728.866 632.556 728.88 632.53C728.88 632.528 728.881 632.527 728.882 632.526C728.884 632.522 728.886 632.517 728.888 632.513C728.904 632.482 728.918 632.449 728.932 632.417C728.944 632.39 728.957 632.364 728.967 632.337C728.969 632.333 728.971 632.328 728.973 632.324C728.986 632.289 728.997 632.254 729.009 632.218C729.011 632.213 729.013 632.208 729.014 632.203C729.016 632.197 729.02 632.191 729.022 632.185L729.031 632.156C729.031 632.156 729.031 632.155 729.031 632.155L738.918 600.847H759.793C759.794 600.847 759.796 600.847 759.797 600.847C759.802 600.847 759.807 600.846 759.812 600.846C759.893 600.845 759.973 600.84 760.052 600.831C760.074 600.828 760.096 600.824 760.118 600.821C760.182 600.812 760.245 600.8 760.307 600.786C760.33 600.78 760.353 600.774 760.375 600.768C760.439 600.751 760.501 600.731 760.561 600.708C760.58 600.701 760.6 600.695 760.619 600.687C760.698 600.656 760.775 600.621 760.849 600.58C760.851 600.58 760.853 600.578 760.855 600.577C760.925 600.539 760.992 600.496 761.057 600.45C761.082 600.433 761.106 600.414 761.13 600.396C761.173 600.363 761.216 600.328 761.256 600.292C761.28 600.271 761.303 600.251 761.326 600.229C761.38 600.176 761.432 600.122 761.48 600.064C761.486 600.058 761.492 600.052 761.497 600.046C761.553 599.978 761.603 599.906 761.65 599.833ZM740.348 586.904L727.215 629.321L707.841 604.81L740.348 586.904ZM624.275 571.312L681.604 581.55L665.224 622.499L624.275 571.312ZM721.958 628.931L669.022 624.859L685.31 584.139L721.958 628.931ZM674.522 654.748L667.333 627.816L726.335 631.816L674.522 654.748ZM670.577 654.748L660.783 674.336L666.379 637.959L670.577 654.748ZM657.646 620.367L615.376 589.431L634.748 591.453L657.646 620.367ZM742.255 590.276L752.122 596.443H740.308L742.255 590.276Z"
        fill="#023047" />
    <path d="M666.011 626.532L619.778 568.264L684.211 579.712L666.011 626.532Z" fill="#219EBC" />
    <path d="M656.618 688.47L665.718 627.413L673.203 655.299L656.618 688.47Z" fill="#219EBC" />
    <path d="M674.378 654.859L667.186 627.707L726.922 631.816L674.378 654.859Z" fill="url(#paint6_radial_1969_3064)" />
    <path d="M667.626 626.532L685.826 580.299L726.922 630.642L667.626 626.532Z" fill="#219EBC" />
    <path d="M707.694 604.81L740.718 586.904L727.362 629.614L707.694 604.81Z" fill="url(#paint7_radial_1969_3064)" />
    <defs>
        <filter id="filter0_f_1969_3064" x="0" y="0.599609" width="1029.21" height="1029.21"
            filterUnits="userSpaceOnUse" color-interpolation-filters="sRGB">
            <feFlood flood-opacity="0" result="BackgroundImageFix" />
            <feBlend mode="normal" in="SourceGraphic" in2="BackgroundImageFix" result="shape" />
            <feGaussianBlur stdDeviation="100" result="effect1_foregroundBlur_1969_3064" />
        </filter>
        <filter id="filter1_f_1969_3064" x="292.601" y="63" width="660.399" height="660.399"
            filterUnits="userSpaceOnUse" color-interpolation-filters="sRGB">
            <feFlood flood-opacity="0" result="BackgroundImageFix" />
            <feBlend mode="normal" in="SourceGraphic" in2="BackgroundImageFix" result="shape" />
            <feGaussianBlur stdDeviation="50" result="effect1_foregroundBlur_1969_3064" />
        </filter>
        <linearGradient id="paint0_linear_1969_3064" x1="514.606" y1="200.6" x2="514.606" y2="829.812"
            gradientUnits="userSpaceOnUse">
            <stop stop-color="#FB8500" />
            <stop offset="1" stop-color="#FFC56F" stop-opacity="0.46" />
        </linearGradient>
        <linearGradient id="paint1_linear_1969_3064" x1="622.8" y1="163" x2="622.8" y2="623.4"
            gradientUnits="userSpaceOnUse">
            <stop stop-color="#FB8500" />
            <stop offset="1" stop-color="#F58A25" stop-opacity="0" />
            <stop offset="1" stop-color="#7061A3" />
        </linearGradient>
        <radialGradient id="paint2_radial_1969_3064" cx="0" cy="0" r="1" gradientUnits="userSpaceOnUse"
            gradientTransform="translate(592.308 482.587) rotate(-22.6015) scale(185.98 409.156)">
            <stop stop-color="#FFB703" />
            <stop offset="1" stop-color="#FFB703" stop-opacity="0" />
        </radialGradient>
        <radialGradient id="paint3_radial_1969_3064" cx="0" cy="0" r="1" gradientUnits="userSpaceOnUse"
            gradientTransform="translate(725.548 410.723) rotate(-72.6285) scale(152.225 117.7)">
            <stop stop-color="#FFB703" />
            <stop offset="1" stop-color="#FFB703" stop-opacity="0" />
        </radialGradient>
        <radialGradient id="paint4_radial_1969_3064" cx="0" cy="0" r="1" gradientUnits="userSpaceOnUse"
            gradientTransform="translate(372.726 519.859) rotate(-22.6015) scale(70.2695 154.593)">
            <stop stop-color="#58E997" />
            <stop offset="1" stop-color="#FFB703" stop-opacity="0" />
        </radialGradient>
        <radialGradient id="paint5_radial_1969_3064" cx="0" cy="0" r="1" gradientUnits="userSpaceOnUse"
            gradientTransform="translate(423.068 492.706) rotate(-72.6285) scale(57.5157 44.4709)">
            <stop stop-color="#58E997" />
            <stop offset="1" stop-color="#FFB703" stop-opacity="0" />
        </radialGradient>
        <radialGradient id="paint6_radial_1969_3064" cx="0" cy="0" r="1" gradientUnits="userSpaceOnUse"
            gradientTransform="translate(676.726 654.859) rotate(-22.6015) scale(70.2695 154.593)">
            <stop stop-color="#219EBC" />
            <stop offset="1" stop-color="#FFB703" stop-opacity="0" />
        </radialGradient>
        <radialGradient id="paint7_radial_1969_3064" cx="0" cy="0" r="1" gradientUnits="userSpaceOnUse"
            gradientTransform="translate(727.068 627.706) rotate(-72.6285) scale(57.5157 44.4709)">
            <stop stop-color="#219EBC" />
            <stop offset="1" stop-color="#FFB703" stop-opacity="0" />
        </radialGradient>
    </defs>
</svg>