<svg width="96" height="96" viewBox="0 0 96 96" fill="none" xmlns="http://www.w3.org/2000/svg">
    <rect width="96" height="96" rx="16" fill="#58E997" />
    <g clip-path="url(#clip0_1945_2963)">
        <path
            d="M43.2082 44.2088C43.7505 43.6663 44.4737 43.3679 45.2444 43.3679C46.0152 43.3679 46.7384 43.6666 47.2807 44.2088L52.7919 49.72C52.9828 49.9106 53.2416 50.018 53.5111 50.018C53.7806 50.018 54.0397 49.9109 54.2302 49.72L59.7413 44.2088C59.9324 44.0182 60.0394 43.7591 60.0394 43.4896C60.0394 43.22 59.9323 42.9609 59.7413 42.7705L54.2302 37.2592C51.8291 34.8588 48.6376 33.5371 45.244 33.5371C41.8504 33.5371 38.6589 34.8589 36.2578 37.2589L19.7236 53.7931C17.3225 56.1942 16 59.3861 16 62.7808C16 66.1758 17.3225 69.3667 19.7239 71.766L25.2348 77.2768C27.6339 79.6779 30.825 81.0005 34.2197 81.0005C37.6144 81.0005 40.8062 79.6779 43.2076 77.2768L52.5251 67.9593C52.8249 67.6596 52.9072 67.2055 52.7323 66.8196C52.5665 66.4545 52.203 66.2228 51.8063 66.2228C51.7836 66.2228 51.7612 66.2235 51.7381 66.2251C51.4102 66.2471 51.0779 66.258 50.75 66.258C48.1621 66.258 45.6169 65.5701 43.3901 64.2682C43.2301 64.1747 43.053 64.1293 42.8771 64.1293C42.6139 64.1293 42.3535 64.2313 42.1575 64.4273L36.258 70.3268C35.7148 70.8699 34.9918 71.1694 34.2221 71.1694C33.4521 71.1694 32.7285 70.8703 32.1853 70.3268L26.674 64.8155C26.1302 64.273 25.8307 63.551 25.8301 62.7823C25.8297 62.0118 26.1292 61.2876 26.674 60.7427L43.2082 44.2088Z"
            fill="white" />
        <path
            d="M76.2761 26.2335L70.7649 20.7222C68.3656 18.3221 65.1748 17 61.7801 17C58.3855 17 55.1936 18.3218 52.7926 20.7219L43.4747 30.0435C43.1749 30.3432 43.0926 30.7977 43.2678 31.1835C43.4337 31.5483 43.7972 31.7799 44.1935 31.7799C44.2162 31.7799 44.2393 31.7792 44.2623 31.7776C44.5933 31.7552 44.9287 31.744 45.2597 31.744C47.8527 31.744 50.3921 32.4317 52.6038 33.7328C52.7644 33.8274 52.9425 33.8732 53.119 33.8732C53.3822 33.8732 53.6426 33.7711 53.8387 33.5752L59.7422 27.6717C60.2844 27.1292 61.0077 26.8307 61.7784 26.8307C62.5491 26.8307 63.2724 27.1295 63.8146 27.6717L69.3258 33.1829C70.4476 34.306 70.4476 36.1343 69.3255 37.2581L52.7919 53.7918C52.2496 54.3353 51.5278 54.6344 50.7587 54.6344C49.9879 54.6344 49.2633 54.335 48.7181 53.7911L43.2081 48.2809C43.0171 48.0903 42.7585 47.9828 42.4889 47.9828C42.2193 47.9828 41.9602 48.0899 41.7697 48.2809L36.2585 53.7921C35.8611 54.1895 35.8611 54.8334 36.2585 55.2308L41.7697 60.742C44.1708 63.1431 47.3624 64.4656 50.7559 64.4656C54.1496 64.4656 57.3412 63.1431 59.7423 60.742L76.2763 44.2079C78.6774 41.8079 79.9999 38.616 79.9999 35.2207C79.9999 31.8253 78.6773 28.6336 76.2761 26.2335Z"
            fill="white" />
    </g>
    <defs>
        <clipPath id="clip0_1945_2963">
            <rect width="64" height="64" fill="white" transform="translate(16 17)" />
        </clipPath>
    </defs>
</svg>