<svg width="96" height="96" viewBox="0 0 96 96" fill="none" xmlns="http://www.w3.org/2000/svg">
    <rect width="96" height="96" rx="16" fill="#58E997" />
    <g clip-path="url(#clip0_1945_2903)">
        <path
            d="M79.371 53.7987C78.5044 52.2603 76.8681 51.3047 75.1004 51.3047C74.2654 51.3047 73.4363 51.523 72.7031 51.9358L58.4337 59.9718C58.2474 60.0766 58.113 60.254 58.0619 60.4616C57.813 61.4776 57.2271 62.896 55.8508 63.8838C54.3273 64.977 52.2664 65.2048 49.7552 64.5608C49.7401 64.557 49.7251 64.5527 49.7119 64.5486L41.4803 61.9927C40.9826 61.8382 40.7034 61.3074 40.858 60.8098C40.9817 60.4118 41.3444 60.1444 41.7605 60.1444C41.855 60.1444 41.9497 60.1588 42.0413 60.1872L50.2301 62.7298C50.2432 62.7338 50.2566 62.7376 50.27 62.741C52.2011 63.2284 53.7093 63.0928 54.7482 62.3477C56.0608 61.4059 56.292 59.7503 56.3193 59.5071C56.3203 59.4993 56.3212 59.4916 56.3217 59.4837C56.3222 59.4797 56.3224 59.4775 56.3226 59.477C56.3227 59.4744 56.3229 59.4718 56.3231 59.4694C56.3233 59.4677 56.3233 59.4662 56.3234 59.4644C56.4797 57.423 55.1623 55.5379 53.1885 54.9805L53.1522 54.9695C53.0921 54.9499 47.0343 52.9713 43.1746 51.87C42.7458 51.7478 41.5642 51.4633 39.8553 51.4633C37.4652 51.4633 33.8998 52.0296 30.4799 54.7332L16.2871 66.2136C15.9624 66.4761 15.9048 66.9489 16.1568 67.2818L23.8415 77.4325C23.9661 77.5968 24.1511 77.7048 24.3554 77.7323C24.3896 77.7369 24.4238 77.7392 24.4582 77.7392C24.6278 77.7392 24.794 77.6833 24.93 77.5785L34.8284 69.9568C35.0508 69.7858 35.349 69.7214 35.6222 69.7858L51.6097 73.5639C52.7953 73.844 54.0766 73.6632 55.137 73.0655L77.5078 60.4666C79.8596 59.1417 80.6954 56.1508 79.371 53.7987Z"
            fill="white" />
        <path
            d="M70.4798 18.2607H41.2617C40.3126 18.2607 39.543 19.0302 39.543 19.9795V27.8003C39.543 28.7495 40.3126 29.519 41.2617 29.519H41.9036V46.1257C41.9036 47.0749 42.6731 47.8444 43.6223 47.8444H68.1184C69.0677 47.8444 69.8371 47.0749 69.8371 46.1257V29.5188H70.4796C71.4287 29.5188 72.1983 28.7493 72.1983 27.8001V19.9795C72.1985 19.0302 71.4288 18.2607 70.4798 18.2607ZM59.486 33.6023H52.2551C51.4969 33.6023 50.8801 32.9855 50.8801 32.2273C50.8801 31.4692 51.4969 30.8524 52.2551 30.8524H59.486C60.2442 30.8524 60.861 31.4692 60.861 32.2273C60.861 32.9855 60.2442 33.6023 59.486 33.6023ZM68.7611 26.0814H68.1186H43.6223H42.9804V21.6982H68.7611V26.0814Z"
            fill="white" />
    </g>
    <defs>
        <clipPath id="clip0_1945_2903">
            <rect width="64" height="64" fill="white" transform="translate(16 16)" />
        </clipPath>
    </defs>
</svg>