<svg width="96" height="96" viewBox="0 0 96 96" fill="none" xmlns="http://www.w3.org/2000/svg">
    <rect width="96" height="96" rx="16" fill="#FB8500" />
    <path
        d="M72 64V66.6667C72 69.6 69.6 72 66.6667 72H29.3333C26.3733 72 24 69.6 24 66.6667V29.3333C24 26.4 26.3733 24 29.3333 24H66.6667C69.6 24 72 26.4 72 29.3333V32H48C45.04 32 42.6667 34.4 42.6667 37.3333V58.6667C42.6667 61.6 45.04 64 48 64H72ZM48 58.6667H74.6667V37.3333H48V58.6667ZM58.6667 52C56.4533 52 54.6667 50.2133 54.6667 48C54.6667 45.7867 56.4533 44 58.6667 44C60.88 44 62.6667 45.7867 62.6667 48C62.6667 50.2133 60.88 52 58.6667 52Z"
        fill="white" />
</svg>