<svg width="24" height="24" viewBox="0 0 24 24" fill="none" xmlns="http://www.w3.org/2000/svg">
    <path
        d="M12 23C18.0751 23 23 18.0751 23 12C23 5.92487 18.0751 1 12 1C5.92487 1 1 5.92487 1 12C1 18.0751 5.92487 23 12 23Z"
        stroke="#FB8500" stroke-width="2" />
    <path
        d="M14.0535 15.9744C14.0001 15.8676 13.9547 15.7447 13.9173 15.6059C13.8799 15.4669 13.8479 15.32 13.8212 15.1651C13.6983 15.2987 13.5567 15.4242 13.3965 15.5417C13.2362 15.6593 13.0573 15.7635 12.8596 15.8542C12.6674 15.9397 12.4537 16.0065 12.2186 16.0545C11.9836 16.1079 11.7299 16.1347 11.4574 16.1347C11.0141 16.1347 10.6054 16.0706 10.2316 15.9424C9.86293 15.8142 9.54509 15.6353 9.27803 15.4056C9.0109 15.1759 8.80259 14.9034 8.65301 14.5883C8.50343 14.2677 8.42871 13.9206 8.42871 13.5466C8.42871 12.6332 8.76785 11.9281 9.44629 11.4313C10.1301 10.9292 11.1476 10.6781 12.4991 10.6781H13.7411V10.1653C13.7411 9.74859 13.6048 9.4201 13.3324 9.17975C13.06 8.934 12.6674 8.81113 12.1546 8.81113C11.7005 8.81113 11.3693 8.91 11.161 9.10759C10.9527 9.29993 10.8485 9.55903 10.8485 9.88482H8.62097C8.62097 9.51627 8.70109 9.1664 8.86132 8.83521C9.02696 8.50402 9.26468 8.21288 9.57449 7.96181C9.88963 7.71073 10.2716 7.51314 10.7203 7.36889C11.1743 7.21931 11.6925 7.14453 12.2747 7.14453C12.7982 7.14453 13.2843 7.20863 13.733 7.33683C14.1871 7.46503 14.5797 7.6547 14.9108 7.9057C15.242 8.15677 15.5011 8.47461 15.6881 8.85921C15.8751 9.23849 15.9686 9.6792 15.9686 10.1813V13.8992C15.9686 14.3639 15.9979 14.7485 16.0567 15.053C16.1154 15.3575 16.2009 15.6192 16.3131 15.8382V15.9744H14.0535ZM11.9302 14.412C12.1546 14.412 12.3629 14.3853 12.5551 14.3319C12.7475 14.2784 12.9211 14.209 13.076 14.1235C13.2309 14.038 13.3644 13.9419 13.4766 13.835C13.5888 13.7229 13.6769 13.6107 13.7411 13.4985V12.0082H12.6032C12.2561 12.0082 11.9596 12.0429 11.7139 12.1123C11.4681 12.1765 11.2678 12.2699 11.1129 12.3928C10.958 12.5103 10.8431 12.6545 10.7684 12.8255C10.6936 12.991 10.6562 13.1727 10.6562 13.3703C10.6562 13.6695 10.7603 13.9179 10.9686 14.1155C11.1824 14.3131 11.5028 14.412 11.9302 14.412Z"
        fill="#FB8500" />
</svg>