<svg width="1440" height="366" viewBox="0 0 1440 366" fill="none" xmlns="http://www.w3.org/2000/svg">
    <path
        d="M130.764 95.5374C62.0376 62.2568 6.58908 5.12901 0 0V365.604H1440V301.557C1440 301.557 1340.73 319.703 1283.08 311.698C1225.44 303.692 1197.15 300.489 1144.31 279.674C1091.48 258.858 1067.46 244.981 1018.89 219.363C970.319 193.744 932.424 171.327 873.18 151.045C813.936 130.764 772.839 123.825 696.516 121.69C620.193 119.555 578.562 136.101 503.84 143.039C429.118 149.978 357.598 157.984 292.483 147.843C227.368 137.702 199.489 128.818 130.764 95.5374Z"
        fill="#FFB703" />
    <path
        d="M1102.2 241.541C1063.35 235.523 1007 213.638 1007 213.638V363H1439.77V183C1439.77 183 1356.6 234.976 1316.12 241.541C1275.63 248.106 1248.32 253.436 1204.51 253.03C1164.3 252.658 1141.04 247.559 1102.2 241.541Z"
        fill="#FFB703" fill-opacity="0.3" />
</svg>