<svg width="48" height="48" viewBox="0 0 48 48" fill="none" xmlns="http://www.w3.org/2000/svg">
<path d="M17.0957 23.4365L1.03313 11.6009L21.3228 12.2115L17.0957 23.4365Z" fill="#FFB703" fill-opacity="0.5"/>
<path d="M41.8006 11.4598L47.1548 14.5596H40.8612L41.8006 11.4598Z" fill="#FFB703" fill-opacity="0.5"/>
<path d="M47.8879 14.9862C47.8894 14.9837 47.8913 14.9818 47.8928 14.9793C47.8959 14.9743 47.8983 14.9692 47.9013 14.9641C47.9086 14.9518 47.9156 14.9394 47.9221 14.9266C47.9265 14.9181 47.9306 14.9094 47.9345 14.9008C47.9402 14.8887 47.9454 14.8765 47.9504 14.8641C47.9543 14.8542 47.9579 14.8442 47.9613 14.8343C47.9652 14.8229 47.9689 14.8115 47.9722 14.7999C47.9755 14.7884 47.9784 14.777 47.981 14.7654C47.9835 14.755 47.9857 14.7445 47.9877 14.7339C47.99 14.7209 47.992 14.708 47.9936 14.6951C47.9948 14.6854 47.9961 14.6756 47.9968 14.6658C47.998 14.6518 47.9986 14.6378 47.999 14.6238C47.9992 14.6178 47.9999 14.6119 47.9999 14.6059C47.9999 14.6024 47.9994 14.5988 47.9993 14.5952C47.9992 14.582 47.9983 14.5687 47.9974 14.5555C47.9966 14.5448 47.996 14.5341 47.9946 14.5235C47.9933 14.5126 47.9915 14.5018 47.9897 14.4909C47.9876 14.4785 47.9856 14.4661 47.983 14.4539C47.981 14.4451 47.9785 14.4364 47.9762 14.4276C47.9727 14.4141 47.9692 14.4006 47.965 14.3874C47.9623 14.3794 47.9591 14.3715 47.9562 14.3635C47.9513 14.3502 47.9466 14.3371 47.941 14.3242C47.9372 14.3153 47.9326 14.3067 47.9283 14.298C47.9228 14.2867 47.9175 14.2754 47.9114 14.2644C47.9056 14.2539 47.8991 14.2438 47.8927 14.2336C47.8873 14.2248 47.8821 14.216 47.8763 14.2076C47.8686 14.1965 47.8601 14.1857 47.8518 14.1749C47.8463 14.1678 47.8412 14.1607 47.8354 14.1538C47.8267 14.1434 47.8173 14.1335 47.8079 14.1236C47.8015 14.1168 47.7953 14.1099 47.7886 14.1033C47.7799 14.0947 47.7706 14.0867 47.7614 14.0785C47.753 14.071 47.7445 14.0635 47.7357 14.0564C47.7276 14.0499 47.7191 14.0439 47.7108 14.0378C47.6998 14.0297 47.6888 14.0219 47.6773 14.0145C47.6744 14.0126 47.6718 14.0104 47.6688 14.0086L41.657 10.2513C41.6529 10.2487 41.6487 10.2468 41.6446 10.2443C41.6362 10.2393 41.628 10.2343 41.6195 10.2297C41.6142 10.2268 41.609 10.2242 41.6037 10.2216C41.5952 10.2173 41.5867 10.2133 41.5781 10.2094C41.5712 10.2062 41.5644 10.2029 41.5574 10.1999C41.5525 10.1978 41.5476 10.196 41.5427 10.1942C41.5313 10.1896 41.5198 10.1855 41.5083 10.1817C41.504 10.1802 41.5001 10.1784 41.4958 10.1771C41.4944 10.1767 41.4931 10.1764 41.4919 10.176C41.4878 10.1748 41.4836 10.1738 41.4795 10.1725C41.4661 10.1686 41.4526 10.1653 41.4391 10.1622C41.434 10.1611 41.4289 10.1595 41.4237 10.1585C41.4203 10.1578 41.417 10.1575 41.4136 10.1569C41.3999 10.1543 41.3861 10.1523 41.3723 10.1505C41.3625 10.1493 41.3526 10.148 41.3427 10.1472C41.3305 10.1462 41.3185 10.1456 41.3064 10.1452C41.2948 10.1448 41.2833 10.1446 41.2718 10.1447C41.2613 10.1449 41.2509 10.1455 41.2404 10.1462C41.2362 10.1464 41.2321 10.1464 41.228 10.1467C41.2252 10.1469 41.2225 10.1468 41.2198 10.1471C41.2141 10.1477 41.2084 10.1487 41.2028 10.1493C41.1931 10.1505 41.1834 10.152 41.1738 10.1535C41.1706 10.1539 41.1674 10.1543 41.1643 10.1549C41.16 10.1556 41.1556 10.1559 41.1514 10.1568C41.1461 10.1578 41.1411 10.1593 41.1359 10.1604C41.1262 10.1625 41.1167 10.165 41.107 10.1675C41.095 10.1706 41.083 10.1738 41.0713 10.1775C41.0609 10.1808 41.0508 10.1845 41.0407 10.1882C41.0331 10.191 41.0255 10.1933 41.0182 10.1963C41.0151 10.1975 41.0121 10.1992 41.009 10.2005C40.998 10.2051 40.9873 10.2103 40.9766 10.2155C40.9693 10.219 40.9618 10.2223 40.9545 10.2261C40.9538 10.2265 40.9529 10.2267 40.9522 10.2272L30.1906 15.9667L23.7937 8.14828C23.7934 8.1479 23.7931 8.14762 23.7928 8.14725C23.7908 8.1448 23.7887 8.14246 23.7867 8.14001C23.7817 8.1341 23.7763 8.12874 23.7711 8.12301C23.7611 8.11193 23.7512 8.10075 23.7405 8.09032C23.7343 8.08422 23.7274 8.07868 23.7209 8.07285C23.7107 8.06355 23.7006 8.05416 23.6898 8.04542C23.6796 8.03725 23.6687 8.02983 23.6581 8.02213C23.6572 8.02156 23.6565 8.02091 23.6556 8.02034C23.6486 8.01536 23.6418 8.00992 23.6346 8.00513C23.6238 7.99799 23.6122 7.99179 23.601 7.98521C23.5924 7.98023 23.5841 7.97488 23.5753 7.97028C23.5648 7.96473 23.5537 7.96013 23.5428 7.95515C23.5328 7.95055 23.5229 7.94548 23.5127 7.94134C23.5029 7.9374 23.4928 7.9343 23.4827 7.93082C23.4708 7.9266 23.4589 7.92218 23.4468 7.91861C23.4453 7.91814 23.4438 7.91749 23.4423 7.91711C23.4316 7.91401 23.4209 7.91213 23.4102 7.9096C23.4005 7.90734 23.3909 7.90471 23.3811 7.90283C23.3769 7.90208 23.3729 7.90114 23.3688 7.90039L2.33124 4.14333C2.32429 4.14211 2.31743 4.14174 2.31048 4.1407C2.2978 4.13882 2.28521 4.13704 2.27253 4.13582C2.26088 4.13469 2.24942 4.13413 2.23787 4.13366C2.22688 4.13319 2.21589 4.13281 2.2049 4.13281C2.19231 4.13281 2.17982 4.13328 2.16733 4.13403C2.15718 4.1346 2.14694 4.13535 2.1368 4.13629C2.12421 4.13751 2.11172 4.1392 2.09932 4.14117C2.08899 4.14277 2.07875 4.14455 2.06851 4.14653C2.05667 4.14888 2.04503 4.1516 2.03338 4.15461C2.02258 4.15733 2.01177 4.16034 2.00106 4.16362C1.99026 4.16691 1.97974 4.17048 1.96913 4.17433C1.95795 4.17837 1.94696 4.1826 1.93597 4.1872C1.92582 4.19143 1.91596 4.19603 1.906 4.20073C1.8953 4.2058 1.88468 4.21106 1.87416 4.2167C1.86392 4.22224 1.85396 4.22806 1.8441 4.23407C1.83461 4.2398 1.82513 4.24563 1.81583 4.25183C1.80493 4.25915 1.79441 4.26686 1.78398 4.27475C1.77854 4.27888 1.77271 4.28245 1.76736 4.28677C1.76482 4.28874 1.76276 4.291 1.76022 4.29306C1.7497 4.3017 1.73965 4.31091 1.7296 4.32021C1.72236 4.32688 1.71494 4.33345 1.70799 4.34041C1.69897 4.34942 1.69061 4.359 1.68207 4.36849C1.67502 4.37638 1.66779 4.38408 1.66121 4.39216C1.6537 4.40137 1.64675 4.41114 1.6397 4.42081C1.63313 4.42974 1.62636 4.43857 1.62026 4.44768C1.61387 4.45735 1.60814 4.4674 1.60222 4.47745C1.5964 4.48722 1.59039 4.4968 1.58513 4.50676C1.57987 4.51672 1.57526 4.52715 1.57047 4.53738C1.5655 4.548 1.56033 4.55852 1.55591 4.56932C1.55178 4.57928 1.5484 4.58961 1.54474 4.59985C1.5406 4.6115 1.53628 4.62315 1.53281 4.63498C1.52989 4.64475 1.52755 4.65489 1.52501 4.66495C1.52182 4.67772 1.51862 4.6904 1.51618 4.70327C1.51552 4.70656 1.51449 4.70975 1.51393 4.71304C1.51261 4.72018 1.51223 4.72722 1.5112 4.73436C1.50942 4.74676 1.50763 4.75916 1.5065 4.77165C1.50538 4.7833 1.50481 4.79486 1.50434 4.80641C1.50387 4.81749 1.5035 4.82858 1.5035 4.83966C1.5035 4.85206 1.50406 4.86437 1.50472 4.87667C1.50528 4.8871 1.50604 4.89743 1.50707 4.90786C1.50829 4.92026 1.50998 4.93247 1.51186 4.94468C1.51346 4.9552 1.51533 4.96572 1.5174 4.97615C1.51975 4.98779 1.52238 4.99925 1.52539 5.01071C1.5282 5.0217 1.53121 5.0326 1.5345 5.0435C1.53778 5.05411 1.54135 5.06463 1.54511 5.07506C1.54915 5.08624 1.55338 5.09742 1.55798 5.10841C1.56221 5.11846 1.56672 5.12841 1.57141 5.13828C1.57649 5.14898 1.58175 5.1596 1.58738 5.17012C1.59283 5.18036 1.59875 5.19022 1.60467 5.20018C1.6104 5.20976 1.61622 5.21925 1.62251 5.22855C1.62975 5.23935 1.63745 5.24978 1.64524 5.26011C1.64938 5.26565 1.65295 5.27147 1.65736 5.27692L6.15227 10.8956H0.704501C0.698113 10.8956 0.692008 10.8963 0.685714 10.8965C0.672751 10.8969 0.659789 10.8974 0.646826 10.8985C0.63546 10.8994 0.624188 10.9007 0.61301 10.9021C0.60202 10.9035 0.591029 10.9052 0.580133 10.9071C0.567734 10.9093 0.555522 10.9119 0.543405 10.9147C0.533636 10.917 0.523961 10.9195 0.514286 10.9222C0.501793 10.9257 0.489581 10.9295 0.47737 10.9337C0.467883 10.9369 0.458489 10.9404 0.449096 10.944C0.437542 10.9485 0.426176 10.9532 0.414998 10.9583C0.405041 10.9628 0.395178 10.9676 0.385409 10.9726C0.375358 10.9777 0.365401 10.983 0.355632 10.9886C0.345205 10.9946 0.334967 11.0009 0.324822 11.0073C0.316086 11.013 0.307538 11.0187 0.299084 11.0246C0.288751 11.0318 0.278701 11.0395 0.268744 11.0473C0.260665 11.0537 0.252869 11.0602 0.245166 11.0669C0.235867 11.075 0.226661 11.0832 0.217738 11.0918C0.209566 11.0996 0.201769 11.1076 0.193973 11.1157C0.18627 11.1238 0.178755 11.1321 0.171429 11.1406C0.162881 11.1506 0.154708 11.1608 0.146724 11.1712C0.142873 11.1762 0.13874 11.1806 0.134982 11.1857C0.132822 11.1887 0.131131 11.1918 0.129065 11.1948C0.120986 11.2063 0.113566 11.218 0.106145 11.2299C0.101166 11.2379 0.096 11.246 0.0913973 11.2542C0.0849158 11.2657 0.078998 11.2776 0.0730802 11.2895C0.0685714 11.2986 0.0639687 11.3077 0.0598356 11.3169C0.0549511 11.328 0.0507241 11.3394 0.0464031 11.3508C0.0424579 11.3612 0.0383249 11.3716 0.0348493 11.3822C0.0314677 11.3926 0.0286497 11.4034 0.0257378 11.4141C0.0224501 11.4259 0.0191624 11.4377 0.0166262 11.4497C0.0144658 11.4595 0.0129628 11.4696 0.0111781 11.4795C0.00892368 11.4926 0.00666928 11.5057 0.00516634 11.5188C0.00403914 11.5283 0.00347554 11.5379 0.002818 11.5475C0.00178474 11.5614 0.000939335 11.5753 0.000751468 11.5891C0.000469667 11.5927 0 11.5963 0 11.6001C0 11.6064 0.000751468 11.6125 0.000939335 11.6188C0.00131507 11.6318 0.00178474 11.6448 0.00291194 11.6577C0.00385127 11.6691 0.00516634 11.6803 0.00657534 11.6915C0.00798434 11.7026 0.00967515 11.7136 0.0116477 11.7245C0.0138082 11.7368 0.0164384 11.749 0.0192564 11.7611C0.0216047 11.771 0.024047 11.7808 0.026771 11.7905C0.0302466 11.8029 0.0340039 11.815 0.038137 11.8271C0.0414247 11.8368 0.0449002 11.8463 0.0486575 11.8557C0.0530724 11.8671 0.0577691 11.8784 0.0627476 11.8895C0.0673503 11.8996 0.0722348 11.9097 0.0772133 11.9196C0.0822857 11.9295 0.0874521 11.9392 0.0929002 11.9488C0.0989119 11.9594 0.105393 11.9699 0.111969 11.9802C0.117417 11.9887 0.123053 11.9972 0.128877 12.0055C0.136204 12.0159 0.143906 12.0261 0.15189 12.0362C0.158184 12.0441 0.164571 12.0519 0.171147 12.0595C0.179225 12.0689 0.187585 12.0781 0.196321 12.0871C0.204023 12.0952 0.212008 12.103 0.22018 12.1107C0.228352 12.1184 0.236524 12.126 0.245166 12.1334C0.255123 12.142 0.265362 12.15 0.275695 12.158C0.280673 12.1619 0.285088 12.166 0.290254 12.1698L16.4754 23.9407L13.5362 43.0455C13.5358 43.0478 13.5355 43.05 13.5352 43.0524L13.5348 43.0546C13.5343 43.0575 13.5343 43.0603 13.5339 43.0633C13.5311 43.0833 13.5289 43.1033 13.5277 43.1232C13.5273 43.1311 13.5275 43.1388 13.5274 43.1466C13.5271 43.1615 13.5267 43.1764 13.5273 43.1913C13.5277 43.2029 13.529 43.2143 13.5301 43.2258C13.5311 43.2367 13.5318 43.2476 13.5333 43.2584C13.5352 43.2718 13.5379 43.285 13.5405 43.2983C13.5423 43.3071 13.5437 43.316 13.5459 43.3248C13.5491 43.3383 13.5531 43.3514 13.557 43.3647C13.5596 43.3732 13.5619 43.3818 13.5648 43.3902C13.5691 43.4024 13.5739 43.4144 13.5788 43.4264C13.5826 43.4357 13.5862 43.4451 13.5904 43.4542C13.5951 43.4644 13.6003 43.4744 13.6055 43.4844C13.611 43.4949 13.6162 43.5054 13.6221 43.5156C13.6269 43.5239 13.6323 43.5318 13.6374 43.5399C13.6445 43.5511 13.6516 43.5624 13.6595 43.5733C13.6645 43.5802 13.6699 43.5867 13.675 43.5934C13.6838 43.6047 13.6925 43.6159 13.702 43.6267C13.7076 43.6331 13.7137 43.6391 13.7195 43.6454C13.7291 43.6555 13.7386 43.6656 13.7489 43.6752C13.7565 43.6824 13.7646 43.689 13.7726 43.6959C13.7816 43.7037 13.7906 43.7116 13.8 43.7189C13.8116 43.7279 13.8238 43.7361 13.836 43.7444C13.8427 43.7489 13.849 43.7537 13.8557 43.7579C13.8728 43.7686 13.8904 43.7784 13.9084 43.7877C13.911 43.789 13.9132 43.7905 13.9158 43.7918C13.9161 43.7919 13.9163 43.792 13.9166 43.7922C13.9404 43.804 13.9649 43.8145 13.9902 43.8237C13.9965 43.826 14.0028 43.8276 14.0091 43.8297C14.0264 43.8354 14.0439 43.8408 14.0618 43.8452C14.0737 43.8482 14.0855 43.8502 14.0973 43.8526C14.1062 43.8543 14.1147 43.8566 14.1237 43.858C14.1267 43.8585 14.1297 43.8583 14.1327 43.8587C14.1653 43.8633 14.1979 43.8664 14.2304 43.8664C14.2307 43.8664 14.2311 43.8663 14.2314 43.8663H14.2318C14.2609 43.8663 14.2895 43.8639 14.318 43.8603C14.3236 43.8595 14.3292 43.8589 14.3348 43.858C14.393 43.8494 14.4491 43.8335 14.5023 43.8112C14.5075 43.8091 14.5125 43.807 14.5176 43.8048C14.5433 43.7933 14.5684 43.7805 14.5926 43.7661C14.597 43.7634 14.6011 43.7604 14.6054 43.7577C14.6257 43.7449 14.6453 43.7311 14.6641 43.7165C14.6698 43.7121 14.6754 43.7079 14.6809 43.7034C14.7018 43.686 14.7217 43.6673 14.7406 43.6475C14.7453 43.6425 14.7498 43.6374 14.7544 43.6323C14.7734 43.6113 14.7914 43.5893 14.8079 43.566C14.8083 43.5652 14.809 43.5646 14.8095 43.5639C14.8272 43.5384 14.8429 43.5113 14.8573 43.4833C14.8584 43.4811 14.86 43.4791 14.8611 43.4768L20.0069 33.1852L37.0559 25.7726C37.0605 25.7707 37.0646 25.7681 37.0691 25.7661C37.0828 25.7598 37.0962 25.7532 37.1094 25.7461C37.1107 25.7454 37.112 25.7448 37.1133 25.7442C37.1155 25.7431 37.1176 25.7422 37.1198 25.741C37.1247 25.7383 37.1292 25.735 37.1341 25.7322C37.1447 25.7259 37.1552 25.7193 37.1654 25.7124C37.1722 25.7079 37.1791 25.7037 37.1856 25.699C37.1882 25.6972 37.1905 25.6951 37.193 25.6933C37.2008 25.6876 37.2083 25.6817 37.2157 25.6757C37.2175 25.6743 37.2195 25.6734 37.2213 25.6719C37.2231 25.6703 37.2247 25.6687 37.2265 25.6672C37.2331 25.6617 37.2394 25.6562 37.2457 25.6504C37.2518 25.6448 37.2579 25.639 37.2639 25.6332C37.2642 25.6329 37.2646 25.6326 37.265 25.6322C37.2676 25.6297 37.2705 25.6275 37.2731 25.6249C37.2751 25.6229 37.2768 25.6208 37.2788 25.6189C37.2835 25.614 37.2881 25.6091 37.2927 25.6041C37.2985 25.5977 37.3041 25.5912 37.3097 25.5846C37.3152 25.5783 37.3208 25.5721 37.326 25.5656C37.329 25.5619 37.3318 25.5581 37.3347 25.5543C37.3371 25.5513 37.3394 25.5483 37.3417 25.5453C37.3441 25.5419 37.3463 25.5384 37.3487 25.535C37.3494 25.534 37.3501 25.5328 37.3509 25.5318C37.3563 25.5241 37.3619 25.5165 37.367 25.5086C37.3686 25.5061 37.3702 25.5036 37.3718 25.5011C37.3773 25.4923 37.3822 25.4833 37.3873 25.4744C37.3921 25.4659 37.3971 25.4577 37.4015 25.4491C37.4017 25.4488 37.402 25.4484 37.4021 25.4479C37.4028 25.4466 37.4035 25.4453 37.4041 25.444C37.4092 25.4339 37.4137 25.4234 37.4183 25.4131C37.4221 25.4046 37.4261 25.3962 37.4295 25.3876C37.43 25.3862 37.4307 25.3848 37.4313 25.3834C37.4356 25.3723 37.4392 25.3609 37.4429 25.3496C37.4435 25.348 37.444 25.3464 37.4446 25.3448C37.4453 25.3427 37.4464 25.3408 37.447 25.3388L37.4499 25.3297C37.45 25.3296 37.45 25.3294 37.4501 25.3292L40.6138 15.3106H47.2937C47.2942 15.3106 47.2947 15.3107 47.295 15.3107C47.2966 15.3107 47.2982 15.3104 47.2998 15.3104C47.3258 15.3102 47.3514 15.3085 47.3767 15.3056C47.3838 15.3048 47.3908 15.3035 47.3979 15.3024C47.4184 15.2994 47.4385 15.2958 47.4583 15.2911C47.4656 15.2894 47.4728 15.2874 47.4801 15.2854C47.5004 15.28 47.5202 15.2736 47.5396 15.2664C47.5457 15.2641 47.5519 15.262 47.558 15.2596C47.5833 15.2495 47.608 15.2383 47.6318 15.2254C47.6323 15.2251 47.6329 15.2247 47.6335 15.2244C47.6559 15.2121 47.6774 15.1984 47.6984 15.1837C47.7063 15.1782 47.7139 15.1722 47.7215 15.1664C47.7355 15.1558 47.749 15.1447 47.7621 15.1332C47.7696 15.1265 47.7771 15.1199 47.7843 15.1129C47.8017 15.0962 47.8182 15.0787 47.8337 15.0603C47.8355 15.0582 47.8374 15.0564 47.8392 15.0544C47.8568 15.0326 47.8728 15.0096 47.8879 14.9862ZM41.0713 10.8489L36.8689 24.4223L30.6693 16.5788L41.0713 10.8489ZM3.92792 5.85969L22.2732 9.13562L17.0317 22.2393L3.92792 5.85969ZM35.1866 24.2977L18.2471 22.9947L23.4593 9.9643L35.1866 24.2977ZM20.0069 32.5591L17.7065 23.9407L36.5871 25.2207L20.0069 32.5591ZM18.7445 32.5591L15.6105 38.8271L17.4014 27.1865L18.7445 32.5591ZM14.6067 21.5573L1.08023 11.6577L7.27947 12.3046L14.6067 21.5573ZM41.6817 11.9281L44.839 13.9014H41.0585L41.6817 11.9281Z" fill="#023047"/>
<path d="M17.2835 23.5303L2.48903 4.88448L23.1074 8.54788L17.2835 23.5303Z" fill="#FFB703"/>
<path d="M14.2777 43.3506L17.1897 23.8124L19.585 32.7361L14.2777 43.3506Z" fill="#FFB703"/>
<path d="M19.9608 32.5947L17.6594 23.9059L36.7749 25.221L19.9608 32.5947Z" fill="url(#paint0_radial)"/>
<path d="M17.8003 23.5306L23.6242 8.73611L36.7749 24.8457L17.8003 23.5306Z" fill="#FFB703"/>
<path d="M30.6224 16.5792L41.1899 10.8493L36.916 24.5166L30.6224 16.5792Z" fill="url(#paint1_radial)"/>
<defs>
<radialGradient id="paint0_radial" cx="0" cy="0" r="1" gradientUnits="userSpaceOnUse" gradientTransform="translate(20.7123 32.5947) rotate(-22.6015) scale(22.4862 49.4697)">
<stop stop-color="#FFB703"/>
<stop offset="1" stop-color="#FFB703" stop-opacity="0"/>
</radialGradient>
<radialGradient id="paint1_radial" cx="0" cy="0" r="1" gradientUnits="userSpaceOnUse" gradientTransform="translate(36.822 23.906) rotate(-72.6285) scale(18.405 14.2307)">
<stop stop-color="#FFB703"/>
<stop offset="1" stop-color="#FFB703" stop-opacity="0"/>
</radialGradient>
</defs>
</svg>
