<svg width="17" height="14" viewBox="0 0 17 14" fill="none" xmlns="http://www.w3.org/2000/svg">
<g clip-path="url(#clip0_1609_3290)">
<path d="M3.14907 10.2319C3.24563 10.1354 3.37839 10.0791 3.5192 10.0791H16.2886C16.522 10.0791 16.6386 10.3605 16.4737 10.5254L13.9512 13.0461C13.8546 13.1426 13.7219 13.1989 13.5811 13.1989H0.811631C0.578289 13.1989 0.461618 12.9175 0.626567 12.7526L3.14907 10.2319Z" fill="url(#paint0_linear_1609_3290)"/>
<path d="M3.1481 0.819766C3.24867 0.723277 3.38144 0.666992 3.51822 0.666992H16.2877C16.521 0.666992 16.6377 0.948418 16.4727 1.11325L13.9502 3.63402C13.8537 3.73051 13.7209 3.78679 13.5801 3.78679H0.810655C0.577313 3.78679 0.460642 3.50537 0.62559 3.34053L3.1481 0.819766Z" fill="url(#paint1_linear_1609_3290)"/>
<path d="M13.9512 5.49555C13.8546 5.39906 13.7219 5.34277 13.5811 5.34277H0.811631C0.578289 5.34277 0.461618 5.6242 0.626567 5.78903L3.14907 8.3098C3.24563 8.40629 3.37839 8.46257 3.5192 8.46257H16.2886C16.522 8.46257 16.6386 8.18115 16.4737 8.01631L13.9512 5.49555Z" fill="url(#paint2_linear_1609_3290)"/>
</g>
<defs>
<linearGradient id="paint0_linear_1609_3290" x1="15.0688" y1="-0.83842" x2="6.24086" y2="16.0822" gradientUnits="userSpaceOnUse">
<stop stop-color="#00FFA3"/>
<stop offset="1" stop-color="#DC1FFF"/>
</linearGradient>
<linearGradient id="paint1_linear_1609_3290" x1="11.2036" y1="-2.8549" x2="2.37568" y2="14.0657" gradientUnits="userSpaceOnUse">
<stop stop-color="#00FFA3"/>
<stop offset="1" stop-color="#DC1FFF"/>
</linearGradient>
<linearGradient id="paint2_linear_1609_3290" x1="13.1244" y1="-1.85319" x2="4.29647" y2="15.0674" gradientUnits="userSpaceOnUse">
<stop stop-color="#00FFA3"/>
<stop offset="1" stop-color="#DC1FFF"/>
</linearGradient>
<clipPath id="clip0_1609_3290">
<rect width="16" height="12.5315" fill="white" transform="translate(0.550049 0.666992)"/>
</clipPath>
</defs>
</svg>
